<?xml version="1.0" encoding="UTF-8" standalone="no"?>
<svg
   viewBox="0 0 448 448"
   version="1.1"
   id="svg10"
   sodipodi:docname="square-minus-duotone.svg"
   width="448"
   height="448"
   inkscape:version="1.2 (dc2aedaf03, 2022-05-15)"
   xmlns:inkscape="http://www.inkscape.org/namespaces/inkscape"
   xmlns:sodipodi="http://sodipodi.sourceforge.net/DTD/sodipodi-0.dtd"
   xmlns="http://www.w3.org/2000/svg"
   xmlns:svg="http://www.w3.org/2000/svg">
  <sodipodi:namedview
     id="namedview12"
     pagecolor="#ffffff"
     bordercolor="#666666"
     borderopacity="1.0"
     inkscape:showpageshadow="2"
     inkscape:pageopacity="0.0"
     inkscape:pagecheckerboard="0"
     inkscape:deskcolor="#d1d1d1"
     showgrid="false"
     inkscape:zoom="2.0058594"
     inkscape:cx="189.19572"
     inkscape:cy="256"
     inkscape:window-width="3840"
     inkscape:window-height="2071"
     inkscape:window-x="-9"
     inkscape:window-y="-9"
     inkscape:window-maximized="1"
     inkscape:current-layer="svg10" />
  <!--! Font Awesome Pro 6.4.0 by @fontawesome - https://fontawesome.com License - https://fontawesome.com/license (Commercial License) Copyright 2023 Fonticons, Inc. -->
  <defs
     id="defs4">
    <style
       id="style2">.fa-secondary{opacity:.4}</style>
  </defs>
  <path
     class="fa-primary"
     d="m 128,224 c 0,-13.3 10.7,-24 24,-24 h 144 c 13.3,0 24,10.7 24,24 0,13.3 -10.7,24 -24,24 H 152 c -13.3,0 -24,-10.7 -24,-24 z"
     id="path6"
     style="fill:#ffffff;fill-opacity:1" />
  <path
     class="fa-secondary"
     d="M 64,0 C 28.7,0 0,28.7 0,64 v 320 c 0,35.3 28.7,64 64,64 h 320 c 35.3,0 64,-28.7 64,-64 V 64 C 448,28.7 419.3,0 384,0 Z m 88,200 h 144 c 13.3,0 24,10.7 24,24 0,13.3 -10.7,24 -24,24 H 152 c -13.3,0 -24,-10.7 -24,-24 0,-13.3 10.7,-24 24,-24 z"
     id="path8"
     style="fill:#909090;fill-opacity:1" />
</svg>
