<?xml version="1.0" encoding="UTF-8" standalone="no"?>
<!-- Created with Inkscape (http://www.inkscape.org/) -->

<svg
   width="42"
   height="42"
   viewBox="0 0 11.1125 11.1125"
   version="1.1"
   id="svg5"
   xml:space="preserve"
   inkscape:version="1.2 (dc2aedaf03, 2022-05-15)"
   sodipodi:docname="api-icon.svg"
   xmlns:inkscape="http://www.inkscape.org/namespaces/inkscape"
   xmlns:sodipodi="http://sodipodi.sourceforge.net/DTD/sodipodi-0.dtd"
   xmlns="http://www.w3.org/2000/svg"
   xmlns:svg="http://www.w3.org/2000/svg"><sodipodi:namedview
     id="namedview7"
     pagecolor="#ffffff"
     bordercolor="#666666"
     borderopacity="1.0"
     inkscape:showpageshadow="2"
     inkscape:pageopacity="0.0"
     inkscape:pagecheckerboard="0"
     inkscape:deskcolor="#d1d1d1"
     inkscape:document-units="mm"
     showgrid="false"
     inkscape:zoom="32"
     inkscape:cx="17.84375"
     inkscape:cy="20.78125"
     inkscape:window-width="2561"
     inkscape:window-height="2022"
     inkscape:window-x="668"
     inkscape:window-y="28"
     inkscape:window-maximized="0"
     inkscape:current-layer="layer1" /><defs
     id="defs2" /><g
     inkscape:label="Layer 1"
     inkscape:groupmode="layer"
     id="layer1"><path
       id="path10786"
       style="fill:#5e5e5e;fill-opacity:1;stroke-width:0.0261933"
       d="M 5.5139553,2.6473926 C 4.7161259,2.6563354 4.0574389,2.9517096 3.4998745,3.5500653 2.9810716,4.1068235 2.7262443,4.7683348 2.7289699,5.5530628 2.7306956,6.0498352 2.8344971,6.4878895 3.046691,6.8929099 3.5034804,7.7647978 4.3782635,8.3597447 5.3039885,8.427946 6.2097931,8.49468 6.9884622,8.1921329 7.598846,7.5363566 8.1152726,6.9815254 8.3733936,6.3220658 8.3752923,5.5536785 8.3772409,4.7653863 8.123182,4.1072373 7.598846,3.5439079 7.0394379,2.9428981 6.3644561,2.6475518 5.5521311,2.6473926 c -0.012734,-2.4e-6 -0.025512,-1.42e-4 -0.038176,0 z M 3.7720309,4.3092709 H 4.4000842 L 5.0539985,6.7753038 H 4.4721257 L 4.3779176,6.3633748 H 3.7868087 l -0.097903,0.411929 H 3.1181166 Z m 1.5645917,0 h 0.6927058 c 0.2438318,0 0.4396378,0.069579 0.5874146,0.2087354 0.1477769,0.1391565 0.221666,0.3226477 0.221666,0.5504703 0,0.2401373 -0.075121,0.4285546 -0.2253604,0.5652479 C 6.4640402,5.7691867 6.257151,5.8369183 5.9923842,5.8369183 H 5.8963289 V 6.7753038 H 5.3366226 Z m 1.9451181,0 H 7.841447 V 6.7753038 H 7.2817407 Z M 5.8963289,4.7821581 v 0.581873 c 0.1256104,-0.00246 0.2179716,-0.026477 0.2770824,-0.072042 0.060342,-0.045565 0.090514,-0.1176066 0.090514,-0.2161241 0,-0.1059068 -0.02894,-0.1804115 -0.086819,-0.2235132 C 6.1192261,4.808019 6.025633,4.7846211 5.8963289,4.7821581 Z M 4.0749743,4.8726716 C 4.0306416,5.2137903 3.9684518,5.5629154 3.8884055,5.920043 H 4.2707791 C 4.187039,5.5530635 4.1242332,5.2039385 4.0823631,4.8726716 Z" /><path
       style="fill:#007a9e;fill-opacity:1;stroke-width:0.0261933"
       d="M 4.5826183,10.918005 C 4.5073252,10.550314 4.4548396,10.253617 4.3679225,9.8691191 4.063804,9.7248624 3.7432172,9.6001882 3.4243224,9.4351025 3.1209482,9.6453844 2.812848,9.8538522 2.5014335,10.049071 2.005783,9.5775442 1.6482156,9.1979155 1.1361391,8.6721254 L 1.7531506,7.7215545 C 1.5875705,7.4119918 1.4737866,7.0870855 1.3485326,6.7645485 0.9772795,6.66746 0.68929641,6.6151314 0.28785041,6.5327069 V 4.5478008 C 0.64250146,4.4775441 0.99917679,4.4025601 1.3485326,4.3159592 1.4636486,3.9996781 1.5946375,3.6808346 1.7531506,3.3589531 L 1.1346785,2.4061318 C 1.5877015,1.9445345 2.0408203,1.4789341 2.5057736,1.0314363 2.8371438,1.2375535 3.0796224,1.4098957 3.4243224,1.6454052 3.7251866,1.476131 4.043038,1.3589947 4.357941,1.2304412 4.4527053,0.8494804 4.5036864,0.5544611 4.5840638,0.14293384 H 6.5200089 L 6.7307781,1.2285566 C 7.0575585,1.3444504 7.3725298,1.4856587 7.6794648,1.6453381 L 8.6171216,1.0055347 C 9.0665754,1.4651866 9.5222535,1.9266999 9.9486174,2.4040978 9.7554226,2.7526547 9.5821033,3.0028634 9.3508121,3.358729 9.5164302,3.6683574 9.6302572,3.9933483 9.7555404,4.3159592 10.126793,4.4130484 10.414776,4.4653761 10.816223,4.5478003 V 6.5327069 C 10.456492,6.5980741 10.079977,6.6829101 9.7414755,6.7873745 9.6328917,7.1001595 9.5040821,7.4076839 9.3508287,7.7217446 9.544771,8.0201607 9.7383565,8.3188118 9.9314834,8.6177539 L 9.9741246,8.6849548 8.6174222,10.075198 7.6794648,9.4351696 C 7.367117,9.6063867 7.057413,9.7261032 6.7305587,9.853082 l -0.2105376,1.084492 c -0.6395842,0.0026 -1.3174941,0.02364 -1.9374028,-0.01957 z M 6.0854137,8.8679545 C 6.4250241,8.807861 6.7057022,8.7128836 7.0189099,8.5520728 9.0017906,7.5339999 9.4553844,4.8498565 7.9214157,3.2114936 7.4987484,2.7600621 6.9566332,2.4328506 6.3668857,2.2732066 5.781675,2.1575032 5.2546661,2.1321682 4.7426839,2.2712132 4.0146374,2.4698761 3.3536823,2.9261719 2.907992,3.5378084 2.6873533,3.8405985 2.4654009,4.3176201 2.3650068,4.7047965 2.2518914,5.3067432 2.2274991,5.8369663 2.3642025,6.3700752 c 0.1538586,0.5969202 0.4398734,1.1051775 0.8702196,1.5464075 0.5015951,0.5142807 1.0754281,0.820405 1.7873163,0.9534851 0.2548102,0.047634 0.7888123,0.046623 1.0636753,-0.00201 z"
       id="path10653"
       sodipodi:nodetypes="scccccccccccccccccccccccccccccccccssssccsccsss" /></g></svg>
