<?xml version="1.0" encoding="UTF-8" standalone="no"?>
<!-- Created with Inkscape (http://www.inkscape.org/) -->

<svg
   width="42"
   height="42"
   viewBox="0 0 11.1125 11.1125"
   version="1.1"
   id="svg5"
   xml:space="preserve"
   inkscape:version="1.2 (dc2aedaf03, 2022-05-15)"
   sodipodi:docname="api-icon.svg"
   xmlns:inkscape="http://www.inkscape.org/namespaces/inkscape"
   xmlns:sodipodi="http://sodipodi.sourceforge.net/DTD/sodipodi-0.dtd"
   xmlns="http://www.w3.org/2000/svg"
   xmlns:svg="http://www.w3.org/2000/svg"><sodipodi:namedview
     id="namedview7"
     pagecolor="#ffffff"
     bordercolor="#666666"
     borderopacity="1.0"
     inkscape:showpageshadow="2"
     inkscape:pageopacity="0.0"
     inkscape:pagecheckerboard="0"
     inkscape:deskcolor="#d1d1d1"
     inkscape:document-units="mm"
     showgrid="false"
     inkscape:zoom="32"
     inkscape:cx="19.265625"
     inkscape:cy="20.78125"
     inkscape:window-width="2561"
     inkscape:window-height="2022"
     inkscape:window-x="1175"
     inkscape:window-y="22"
     inkscape:window-maximized="0"
     inkscape:current-layer="layer1" /><defs
     id="defs2" /><g
     inkscape:label="Layer 1"
     inkscape:groupmode="layer"
     id="layer1"><path
       id="path10786"
       style="fill:#5e5e5e;stroke-width:0.021983;fill-opacity:1"
       d="M 5.5200765 3.1129883 C 4.8504907 3.1204936 4.2976815 3.3683892 3.8297404 3.8705648 C 3.3943302 4.3378293 3.180464 4.8930088 3.1827515 5.5515991 C 3.1841998 5.96852 3.2713162 6.3361612 3.4494019 6.6760783 C 3.8327667 7.4078184 4.5669366 7.9071331 5.3438599 7.9643717 C 6.1040649 8.0203788 6.7575702 7.7664633 7.2698405 7.216097 C 7.7032563 6.7504497 7.9198868 6.1969921 7.9214803 5.5521159 C 7.9231157 4.8905343 7.7098944 4.3381766 7.2698405 3.8653971 C 6.800352 3.360994 6.2338672 3.1131219 5.5521159 3.1129883 C 5.5414286 3.1129863 5.5307049 3.1128691 5.5200765 3.1129883 z M 4.0581502 4.5077352 L 4.5852498 4.5077352 L 5.1340535 6.5773763 L 4.6457113 6.5773763 L 4.5666463 6.231661 L 4.0705526 6.231661 L 3.988387 6.5773763 L 3.5093465 6.5773763 L 4.0581502 4.5077352 z M 5.3712484 4.5077352 L 5.9526082 4.5077352 C 6.1572463 4.5077352 6.3215783 4.5661299 6.4456014 4.6829183 C 6.5696245 4.7997067 6.6316366 4.9537034 6.6316366 5.1449056 C 6.6316366 5.3464431 6.568591 5.5045741 6.4425008 5.6192952 C 6.3174441 5.7329831 6.1438104 5.7898275 5.9216024 5.7898275 L 5.8409871 5.7898275 L 5.8409871 6.5773763 L 5.3712484 6.5773763 L 5.3712484 4.5077352 z M 7.0037069 4.5077352 L 7.4734456 4.5077352 L 7.4734456 6.5773763 L 7.0037069 6.5773763 L 7.0037069 4.5077352 z M 5.8409871 4.9046102 L 5.8409871 5.3929525 C 5.9464068 5.3908858 6.0239218 5.3707317 6.0735311 5.332491 C 6.1241735 5.2942506 6.1494954 5.2337886 6.1494954 5.1511068 C 6.1494954 5.0622236 6.1252074 4.9996948 6.0766317 4.9635213 C 6.0280557 4.9263142 5.9495068 4.9066773 5.8409871 4.9046102 z M 4.3123983 4.9805745 C 4.2751916 5.2668615 4.2229983 5.559868 4.1558187 5.8595907 L 4.4767293 5.8595907 C 4.4064496 5.5515997 4.3537393 5.2585933 4.3185994 4.9805745 L 4.3123983 4.9805745 z " /><path
       style="fill:#007a9e;stroke-width:0.021983;fill-opacity:1"
       d="M 4.7384432,10.054177 C 4.6752528,9.7455889 4.6312038,9.496583 4.5582578,9.1738897 4.3030235,9.0528209 4.033968,8.9481869 3.7663326,8.8096372 3.511723,8.9861182 3.253147,9.1610768 2.9917895,9.3249163 2.5758102,8.9291827 2.2757184,8.6105758 1.8459534,8.1693015 L 2.3637861,7.371526 C 2.2248214,7.1117226 2.1293272,6.839042 2.0242066,6.5683498 1.712629,6.4868674 1.4709365,6.4429501 1.1340192,6.3737746 V 4.7079236 C 1.4316634,4.64896 1.7310065,4.586029 2.0242066,4.5133484 2.1208188,4.2479065 2.2307525,3.9803141 2.3637861,3.7101721 L 1.8447276,2.9105079 C 2.2249314,2.5231081 2.6052155,2.1323486 2.9954319,1.7567819 3.2735375,1.9297677 3.4770399,2.0744075 3.7663326,2.272061 4.0188357,2.1299961 4.2855954,2.0316883 4.5498807,1.9237986 4.6294125,1.6040737 4.6721989,1.356476 4.7396564,1.0110979 h 1.62476 l 0.17689,0.911119 c 0.2742535,0.097265 0.5385961,0.2157754 0.7961942,0.3497878 L 8.1244378,1.7350437 C 8.5016461,2.1208109 8.8840782,2.5081402 9.2419081,2.9088009 9.0797675,3.2013305 8.9343077,3.4113205 8.7401944,3.709984 8.8791909,3.9698425 8.9747213,4.2425942 9.0798664,4.5133484 9.391444,4.5948314 9.6331363,4.6387479 9.9700539,4.7079232 V 6.3737746 C 9.6681463,6.4286346 9.3521525,6.499834 9.0680623,6.5875067 8.9769323,6.8500145 8.8688277,7.1081072 8.7402083,7.3716856 8.9029762,7.6221341 9.0654446,7.8727798 9.2275282,8.1236697 L 9.2633152,8.1800687 8.1246901,9.3468434 7.3375006,8.8096935 C 7.0753598,8.953389 6.8154378,9.0538622 6.5411223,9.1604304 L 6.3644266,10.0706 C 5.8276496,10.0728 5.2587074,10.09044 4.7384432,10.05418 Z M 5.9996783,8.3336529 C 6.2846995,8.2832189 6.5202612,8.2035082 6.7831237,8.0685463 8.4472748,7.2141191 8.8279577,4.9614267 7.5405601,3.5864153 7.1858326,3.2075472 6.7308574,2.9329319 6.2359063,2.7989492 5.7447628,2.701844 5.3024656,2.6805814 4.8727798,2.7972762 4.26176,2.9640059 3.7070472,3.3469564 3.3329975,3.8602781 3.1478244,4.1143975 2.9615488,4.5147423 2.8772921,4.8396837 2.7823589,5.3448731 2.7618875,5.7898678 2.8766171,6.2372844 3.0057443,6.7382553 3.2457849,7.1648149 3.606957,7.5351213 c 0.4209684,0.4316149 0.9025631,0.6885326 1.5000219,0.8002213 0.2138518,0.039977 0.6620181,0.039129 0.8926994,-0.00169 z"
       id="path10653"
       sodipodi:nodetypes="scccccccccccccccccccccccccccccccccssssccsccsss" /></g></svg>
