<?xml version="1.0" encoding="UTF-8" standalone="no"?>
<svg
   width="42"
   height="42"
   viewBox="0 0 42 42"
   fill="none"
   version="1.1"
   id="svg21"
   sodipodi:docname="companies-icon.svg"
   inkscape:version="1.2 (dc2aedaf03, 2022-05-15)"
   xmlns:inkscape="http://www.inkscape.org/namespaces/inkscape"
   xmlns:sodipodi="http://sodipodi.sourceforge.net/DTD/sodipodi-0.dtd"
   xmlns="http://www.w3.org/2000/svg"
   xmlns:svg="http://www.w3.org/2000/svg">
  <defs
     id="defs25" />
  <sodipodi:namedview
     id="namedview23"
     pagecolor="#ffffff"
     bordercolor="#666666"
     borderopacity="1.0"
     inkscape:showpageshadow="2"
     inkscape:pageopacity="0.0"
     inkscape:pagecheckerboard="0"
     inkscape:deskcolor="#d1d1d1"
     showgrid="false"
     inkscape:zoom="24.452381"
     inkscape:cx="19.016553"
     inkscape:cy="21"
     inkscape:window-width="3840"
     inkscape:window-height="2071"
     inkscape:window-x="-9"
     inkscape:window-y="-9"
     inkscape:window-maximized="1"
     inkscape:current-layer="svg21" />
  <path
     fill-rule="evenodd"
     clip-rule="evenodd"
     d="m 9.75,1.375 c 0,-0.552285 0.44772,-1 1,-1 h 20.5 c 0.5523,0 1,0.447715 1,1 v 2.75 h 5.625 0.9375 c 0.5178,0 0.9375,0.41973 0.9375,0.9375 C 39.75,5.58027 39.3303,6 38.8125,6 H 37.875 V 41.625 H 4.125 V 6 H 3.1875 C 2.669732,6 2.25,5.58027 2.25,5.0625 2.25,4.54473 2.669733,4.125 3.1875,4.125 H 4.125 9.75 Z"
     fill="#00b8d1"
     id="path9" />
  <g
     style="mix-blend-mode:overlay"
     opacity="0.5"
     id="g13"
     transform="translate(2)">
    <rect
       x="0.25"
       y="4.125"
       width="37.5"
       height="1.875"
       rx="0.9375"
       fill="#ffffff"
       id="rect11" />
  </g>
  <g
     style="mix-blend-mode:overlay"
     opacity="0.3"
     id="g17"
     transform="translate(2)">
    <rect
       x="2.125"
       y="28.5"
       width="33.75"
       height="13.125"
       fill="#000000"
       id="rect15" />
  </g>
  <path
     fill-rule="evenodd"
     clip-rule="evenodd"
     d="m 7.875,10.25 c 0,-0.27614 0.22386,-0.5 0.5,-0.5 H 13 c 0.2761,0 0.5,0.22386 0.5,0.5 v 4.625 c 0,0.2761 -0.2239,0.5 -0.5,0.5 H 8.375 c -0.27614,0 -0.5,-0.2239 -0.5,-0.5 z m 9.375,22.5 c 0,-0.2761 0.2239,-0.5 0.5,-0.5 h 6.5 c 0.2761,0 0.5,0.2239 0.5,0.5 v 8.875 h -7.5 z M 8.375,21 c -0.27614,0 -0.5,0.2239 -0.5,0.5 v 4.625 c 0,0.2761 0.22386,0.5 0.5,0.5 H 13 c 0.2761,0 0.5,-0.2239 0.5,-0.5 V 21.5 C 13.5,21.2239 13.2761,21 13,21 Z m 9.8125,-10.75 c 0,-0.27614 0.2239,-0.5 0.5,-0.5 h 4.625 c 0.2761,0 0.5,0.22386 0.5,0.5 v 4.625 c 0,0.2761 -0.2239,0.5 -0.5,0.5 h -4.625 c -0.2761,0 -0.5,-0.2239 -0.5,-0.5 z m 0.5,10.75 c -0.2761,0 -0.5,0.2239 -0.5,0.5 v 4.625 c 0,0.2761 0.2239,0.5 0.5,0.5 h 4.625 c 0.2761,0 0.5,-0.2239 0.5,-0.5 V 21.5 c 0,-0.2761 -0.2239,-0.5 -0.5,-0.5 z M 28.5,10.25 c 0,-0.27614 0.2239,-0.5 0.5,-0.5 h 4.625 c 0.2761,0 0.5,0.22386 0.5,0.5 v 4.625 c 0,0.2761 -0.2239,0.5 -0.5,0.5 H 29 c -0.2761,0 -0.5,-0.2239 -0.5,-0.5 z M 29,21 c -0.2761,0 -0.5,0.2239 -0.5,0.5 v 4.625 c 0,0.2761 0.2239,0.5 0.5,0.5 h 4.625 c 0.2761,0 0.5,-0.2239 0.5,-0.5 V 21.5 c 0,-0.2761 -0.2239,-0.5 -0.5,-0.5 z M 7.875,32.75 c 0,-0.2761 0.22386,-0.5 0.5,-0.5 H 13 c 0.2761,0 0.5,0.2239 0.5,0.5 v 4.625 c 0,0.2761 -0.2239,0.5 -0.5,0.5 H 8.375 c -0.27614,0 -0.5,-0.2239 -0.5,-0.5 z M 29,32.25 c -0.2761,0 -0.5,0.2239 -0.5,0.5 v 4.625 c 0,0.2761 0.2239,0.5 0.5,0.5 h 4.625 c 0.2761,0 0.5,-0.2239 0.5,-0.5 V 32.75 c 0,-0.2761 -0.2239,-0.5 -0.5,-0.5 z"
     fill="#686868"
     fill-opacity="0.57"
     style="mix-blend-mode:multiply"
     id="path19" />
</svg>
