<?xml version="1.0" encoding="UTF-8" standalone="no"?>
<!-- Created with Inkscape (http://www.inkscape.org/) -->

<svg
   width="42"
   height="42"
   viewBox="0 0 11.1125 11.1125"
   version="1.1"
   id="svg5"
   xml:space="preserve"
   inkscape:version="1.2 (dc2aedaf03, 2022-05-15)"
   sodipodi:docname="components-icon-1.svg"
   xmlns:inkscape="http://www.inkscape.org/namespaces/inkscape"
   xmlns:sodipodi="http://sodipodi.sourceforge.net/DTD/sodipodi-0.dtd"
   xmlns="http://www.w3.org/2000/svg"
   xmlns:svg="http://www.w3.org/2000/svg"><sodipodi:namedview
     id="namedview7"
     pagecolor="#ffffff"
     bordercolor="#666666"
     borderopacity="1.0"
     inkscape:showpageshadow="2"
     inkscape:pageopacity="0.0"
     inkscape:pagecheckerboard="0"
     inkscape:deskcolor="#d1d1d1"
     inkscape:document-units="mm"
     showgrid="false"
     inkscape:zoom="16"
     inkscape:cx="13.84375"
     inkscape:cy="16.9375"
     inkscape:window-width="2734"
     inkscape:window-height="1564"
     inkscape:window-x="579"
     inkscape:window-y="205"
     inkscape:window-maximized="0"
     inkscape:current-layer="layer1" /><defs
     id="defs2" /><g
     inkscape:label="Layer 1"
     inkscape:groupmode="layer"
     id="layer1"><path
       id="rect310"
       style="fill-opacity:1;stroke-width:0.164999;stroke-linecap:square;stroke-linejoin:round;paint-order:markers fill stroke;fill:#949494"
       d="M 1.8635108,1.0583333 H 5.4450333 C 5.6099287,1.4353608 5.7165505,2.3556084 5.7070357,2.7517621 5.5793109,2.787628 5.4392417,2.9098944 5.1793725,2.7046771 4.9195033,2.4994598 4.8314896,2.4116496 4.467129,2.4083318 4.1027683,2.4050139 3.7448851,2.6983188 3.7378468,3.2080029 c -0.00704,0.5096842 0.3686912,0.8013231 0.816498,0.8156887 0.4478067,0.014366 0.5849165,-0.3625283 0.8121637,-0.38762 0.1971724,-0.021771 0.142832,-0.01754 0.309975,0.034099 0.04732,0.6342786 -0.091158,1.3127677 -0.2232241,1.7368952 C 4.9894028,5.6177953 3.920144,5.6655158 3.7297465,5.6711061 3.6504764,5.576966 3.6081198,5.5146662 3.6691295,5.3234408 3.8013493,4.9090182 4.0506747,4.9763367 4.0568932,4.4962378 4.0621626,4.0894109 3.7440176,3.6937291 3.2558664,3.685266 2.7677151,3.6768029 2.4249685,4.0545613 2.4240647,4.4993988 2.4232767,4.887224 2.7023013,5.0781439 2.8025798,5.3323533 2.8669642,5.49557 2.7939347,5.664678 2.7842732,5.6884535 2.3940507,5.699635 1.5435597,5.6333804 1.0495636,5.442395 c -0.00581,-0.6704002 0.00877,-3.5788842 0.00877,-3.5788842 0.00109,-0.446067 0.3591092,-0.8051775 0.8051774,-0.8051775 z"
       sodipodi:nodetypes="scczzzzsccccszssccss" /><path
       id="rect310-6"
       style="fill:#737373;fill-opacity:1;stroke-width:0.164999;stroke-linecap:square;stroke-linejoin:round;paint-order:markers fill stroke"
       d="m 5.7694954,1.0612566 c 0.5847507,-1.257e-4 3.4794934,-0.00292 3.4794934,-0.00292 0.4460681,-3.763e-4 0.8041472,0.3591103 0.8051772,0.8051775 0,0 0.0081,3.4836497 0.0083,3.5820927 C 9.5624656,5.6370674 8.5826588,5.6926291 8.356052,5.6926788 8.2886087,5.5749062 8.2451291,5.4049686 8.3948779,5.207137 8.5446267,5.0093054 8.723738,4.8661856 8.725198,4.5140251 8.7266579,4.1618645 8.4369674,3.7153256 7.8858307,3.7059998 7.334694,3.696674 7.0714622,4.1750858 7.0719387,4.5341633 7.0724153,4.8932408 7.2339182,4.991477 7.384555,5.2064734 7.5351918,5.4214698 7.4448358,5.6831784 7.4165019,5.6890862 7.1218683,5.685225 6.0566871,5.6095333 5.7511765,5.4489541 5.8519991,5.0720537 6.0083063,4.1628103 5.9932389,3.6008934 5.8553946,3.3722282 5.6526738,3.3407155 5.4833524,3.3476521 5.3236821,3.3541933 5.1286034,3.435949 5.0007291,3.5414117 4.7892535,3.7158237 4.6552958,3.7609758 4.5020371,3.7581465 4.2097549,3.7527507 3.9944644,3.4713728 3.9992692,3.2214309 4.004074,2.971489 4.2031631,2.7122468 4.5310644,2.6924997 4.6961573,2.6825574 4.8532803,2.7804456 4.9953108,2.9065172 5.1765039,3.0673511 5.3346463,3.0973454 5.4985689,3.0990718 5.7234769,3.1014404 5.987459,2.9217311 5.987459,2.9217311 5.972104,2.3228128 5.9447924,1.6489576 5.7694954,1.0612566 Z"
       sodipodi:nodetypes="csscczzzzzcccssszssscc" /><path
       id="rect310-7"
       style="fill:#73af36;fill-opacity:1;stroke-width:0.164999;stroke-linecap:square;stroke-linejoin:round;paint-order:markers fill stroke"
       d="M 2.8954217,5.964073 C 2.9152575,5.9374316 3.0875815,5.738481 3.0820663,5.474381 3.0723978,5.0113968 2.6767614,4.8858391 2.6794762,4.5172226 2.682191,4.1486061 2.9823929,3.9794311 3.2124446,3.9777352 c 0.2300517,-0.0017 0.5352175,0.172204 0.5363343,0.5418388 0.00112,0.3696348 -0.4004205,0.49149 -0.4043795,0.9447032 -0.00265,0.302935 0.1762194,0.4721436 0.1980945,0.4995814 C 4.1911815,5.9610694 4.9156127,5.8816702 5.419009,5.7331354 5.6359257,6.2949528 5.6673915,7.1484122 5.668767,7.3714421 5.669013,7.4113297 5.4888654,7.5476037 5.1873468,7.3512737 5.1285304,7.3129761 4.8247979,7.0357124 4.4687964,7.0402434 4.1127949,7.0447744 3.6936019,7.288485 3.6838589,7.8401811 3.6741159,8.3918773 4.1316194,8.6573189 4.4892461,8.6608301 4.8468728,8.6643413 5.0612937,8.4211202 5.195131,8.3318005 5.4373634,8.1701406 5.6744062,8.2857829 5.6746135,8.319392 c 0.00138,0.2230299 -0.1085813,1.5284931 -0.261451,1.708465 -0.2230281,0.0017 -3.5496517,0.02631 -3.5496517,0.02631 -0.4460561,0.0033 -0.8051775,-0.3591089 -0.8051775,-0.8051772 0,0 -0.00694,-2.8129352 0,-3.4853399 0.5301991,0.1197988 1.2671143,0.2002865 1.8370884,0.2004241 z"
       sodipodi:nodetypes="cszzzscccszzzsccssccc" /><path
       id="rect310-6-9"
       style="fill:#999999;fill-opacity:1;stroke-width:0.164999;stroke-linecap:square;stroke-linejoin:round;paint-order:markers fill stroke"
       d="M 7.561454,5.9786893 C 7.6766138,5.8071235 7.7404177,5.7506951 7.7391269,5.4892666 7.733702,4.9735901 7.345778,4.9860018 7.3331199,4.5428359 7.3307971,4.2588334 7.5591184,3.9946187 7.8615036,3.9894536 8.1638887,3.9842884 8.4065618,4.23527 8.4118622,4.5332184 8.4254308,4.8993798 7.9884415,5.0320969 7.9912906,5.489266 c -0.00129,0.2649328 0.089381,0.3769698 0.1994779,0.4894233 0.3519428,0.0029 1.2503581,-0.053241 1.8458575,-0.2004241 l 0.01754,3.4707236 c 0.0023,0.4460626 -0.3591095,0.8059302 -0.8051772,0.8051772 0,0 -3.2563127,-0.0054 -3.4793465,-0.0058 0.1573047,-0.7238696 0.2317381,-1.3824322 0.22074,-1.8283649 0,0 -0.065987,-0.2099088 -0.4994994,-0.2255492 C 5.0573708,7.9788115 4.9700056,8.411731 4.5243073,8.40086 4.2109006,8.3879219 3.998216,8.171826 3.9972802,7.8812288 3.9963444,7.5906316 4.1892594,7.3251804 4.5362104,7.3232603 5.009794,7.3420954 4.95874,7.719732 5.5172389,7.7366506 5.7801487,7.7349658 5.8760556,7.6576107 5.9935133,7.5336401 5.9807463,6.8970392 5.9005452,6.4425441 5.7964557,5.7902198 6.4956417,5.9701252 7.2891979,5.9704211 7.561454,5.9786893 Z"
       sodipodi:nodetypes="ccczccccsscszczccccc" /></g></svg>
