<?xml version="1.0" encoding="UTF-8" standalone="no"?>
<!-- Created with Inkscape (http://www.inkscape.org/) -->

<svg
   width="356mm"
   height="62mm"
   viewBox="0 0 356 62"
   version="1.1"
   id="svg5"
   inkscape:version="1.1 (c68e22c387, 2021-05-23)"
   sodipodi:docname="pretzel3.svg"
   xmlns:inkscape="http://www.inkscape.org/namespaces/inkscape"
   xmlns:sodipodi="http://sodipodi.sourceforge.net/DTD/sodipodi-0.dtd"
   xmlns="http://www.w3.org/2000/svg"
   xmlns:svg="http://www.w3.org/2000/svg">
  <sodipodi:namedview
     id="namedview7"
     pagecolor="#ffffff"
     bordercolor="#666666"
     borderopacity="1.0"
     inkscape:pageshadow="2"
     inkscape:pageopacity="0.0"
     inkscape:pagecheckerboard="0"
     inkscape:document-units="mm"
     showgrid="false"
     inkscape:zoom="0.9363932"
     inkscape:cx="476.29564"
     inkscape:cy="97.181398"
     inkscape:window-width="3840"
     inkscape:window-height="2066"
     inkscape:window-x="-11"
     inkscape:window-y="-11"
     inkscape:window-maximized="1"
     inkscape:current-layer="layer1"
     width="156mm"
     inkscape:lockguides="true" />
  <defs
     id="defs2">
    <rect
       x="224.26476"
       y="5.3396372"
       width="1118.12"
       height="227.46855"
       id="rect20201" />
    <rect
       x="273.38943"
       y="50.19259"
       width="898.12699"
       height="169.80046"
       id="rect3037" />
  </defs>
  <g
     inkscape:label="Layer 1"
     inkscape:groupmode="layer"
     id="layer1">
    <path
       id="path78-2-4-6-0-5-02"
       style="color:#000000;fill:#ffffff;fill-opacity:1;stroke-width:1;stroke-linecap:round;stroke-linejoin:round;-inkscape-stroke:none;paint-order:markers fill stroke"
       d="M 1,22.083984 V 39.915969 A 7.5,7.5 0 0 1 1.19689,39.697378 L 9.89455,31.000236 1.19689,22.302575 A 7.5,7.5 0 0 1 1,22.083984 Z" />
    <path
       id="path78-2-4-6-0-5-6"
       style="color:#000000;fill:#ffffff;fill-opacity:1;stroke-width:1;stroke-linecap:round;stroke-linejoin:round;-inkscape-stroke:none;paint-order:markers fill stroke"
       d="m 6.50013,11.500134 a 5.5,5.5 0 0 0 -3.88865,1.611271 5.5,5.5 0 0 0 0,7.777303 l 8.69714,8.697145 7.7773,-7.777304 -8.69714,-8.697144 A 5.5,5.5 0 0 0 6.50013,11.500134 Z" />
    <path
       id="path78-2-4-6-0-5-0"
       style="color:#000000;fill:#ffffff;fill-opacity:1;stroke-width:1;stroke-linecap:round;stroke-linejoin:round;-inkscape-stroke:none;paint-order:markers fill stroke"
       d="m 16.99952,1 c -1.458582,2.714e-4 -2.857339,0.579848 -3.88866,1.6112712 L 6.18,9.5426308 c 0.1063104,-0.016417 0.2129618,-0.030546 0.31988,-0.042375 1.9888664,2.255e-4 3.896207,0.7904102 5.30253,2.1967652 l 3.88866,3.888652 3.58584,-3.585828 h 17.445465 l 7.27709,7.277592 v 4.945435 l -7.77732,7.777304 H 30.10522 l -8.19126,8.19123 1.19735,1.197343 c 1.031321,1.031423 2.430078,1.610999 3.88866,1.61127 h 11.499555 c 1.458586,-2.68e-4 2.857346,-0.579845 3.88867,-1.61127 l 11.00039,-10.999846 c 1.031424,-1.03132 1.611,-2.430073 1.61127,-3.888651 v -9.500195 c -2.69e-4,-1.458579 -0.579846,-2.857332 -1.61127,-3.888652 L 42.888415,2.6112712 C 41.857094,1.579848 40.458337,1.0002714 38.999755,1 Z"
       sodipodi:nodetypes="cccccccccccccccccccccccc" />
    <path
       id="path78-2-4-6-0-5-22"
       style="color:#000000;fill:#ffffff;fill-opacity:1;stroke-width:1;stroke-linecap:round;stroke-linejoin:round;-inkscape-stroke:none;paint-order:markers fill stroke"
       d="M 54.10313,32.501953 C 48.322679,38.203975 42.049038,44.683791 36.72228,50.00011 H 19.27717 l -3.58531,-3.585829 -3.88917,3.888653 C 10.320629,51.777108 8.2905769,52.565865 6.202,52.479029 l 6.90914,6.909654 c 1.031319,1.031423 2.430072,1.610999 3.88865,1.61127 h 21.99987 c 1.458578,-2.71e-4 2.857331,-0.579847 3.88865,-1.61127 L 53.38845,48.888548 c 1.031423,-1.031319 1.610999,-2.430072 1.61127,-3.88865 v -9.499679 c -0.0023,-1.065151 -0.313731,-2.106735 -0.89659,-2.998266 z"
       sodipodi:nodetypes="cccccccccccccc" />
    <path
       id="path78-2-4-6-0-5-2"
       style="color:#000000;fill:#ffffff;fill-opacity:1;stroke-width:1;stroke-linecap:round;stroke-linejoin:round;-inkscape-stroke:none;paint-order:markers fill stroke"
       d="m 27.00017,18.999935 c -1.458579,2.71e-4 -2.857332,0.579848 -3.88865,1.611271 L 2.61148,41.111246 c -2.14730194,2.147784 -2.14730194,5.629518 0,7.777302 2.1477835,2.147301 5.6295165,2.147301 7.7773,0 L 29.27755,29.99978 h 6.11655 l 6.6058,-6.607349 v -3.133659 c -0.985083,-0.813351 -2.222571,-1.25843 -3.50004,-1.258837 z"
       sodipodi:nodetypes="ccccccccccc" />
    <text
       xml:space="preserve"
       transform="scale(0.26458333)"
       id="text3035"
       style="font-style:normal;font-weight:normal;font-size:133.333px;line-height:1.55;font-family:sans-serif;white-space:pre;shape-inside:url(#rect3037);fill:#000000;fill-opacity:1;stroke:none"><tspan
         x="273.38867"
         y="361.63586"
         id="tspan29594"><tspan
           dx="0 84.309677 91.340912 82.16124 92.708099 91.145599 102.73413 91.406006"
           id="tspan29592">EXTRADRY</tspan></tspan></text>
    <path
       d="M 87.708974,47.524175 H 63.59163 V 14.180884 H 87.708974 V 20.63009 H 72.145786 v 5.755021 h 14.443533 v 6.449207 H 72.145786 v 8.240652 h 15.563188 z"
       id="path29377"
       style="font-weight:bold;font-size:173.333px;line-height:1.35;-inkscape-font-specification:'sans-serif Bold';white-space:pre;fill:#ffffff;stroke-width:0.264583;fill-opacity:1" />
    <path
       d="m 124.09186,47.524175 h -9.94253 L 106.96115,36.551568 99.638623,47.524175 H 90.143961 L 101.9675,30.729367 90.390285,14.180884 h 9.920125 l 6.94185,10.390388 7.14339,-10.390388 h 9.51706 l -11.6444,16.212587 z"
       id="path29379"
       style="font-weight:bold;font-size:173.333px;line-height:1.35;-inkscape-font-specification:'sans-serif Bold';white-space:pre;fill:#ffffff;stroke-width:0.264583;fill-opacity:1" />
    <path
       d="m 154.44274,20.63009 h -10.41278 v 26.894085 h -8.59894 V 20.63009 h -10.41278 v -6.449206 h 29.4245 z"
       id="path29381"
       style="font-weight:bold;font-size:173.333px;line-height:1.35;-inkscape-font-specification:'sans-serif Bold';white-space:pre;fill:#ffffff;stroke-width:0.264583;fill-opacity:1" />
    <path
       d="m 176.19708,24.392127 q 0,-1.254012 -0.51504,-2.149735 -0.51505,-0.895723 -1.76906,-1.410764 -0.87333,-0.358289 -2.03777,-0.425469 -1.16444,-0.08957 -2.70956,-0.08957 h -3.11264 v 8.979625 h 2.64239 q 2.06016,0 3.44853,-0.201538 1.38837,-0.201539 2.32888,-0.918117 0.89572,-0.694185 1.2988,-1.522729 0.42547,-0.850937 0.42547,-2.261701 z m 13.41345,23.132048 h -10.50235 l -9.09159,-12.22662 h -3.96358 v 12.22662 h -8.55415 V 14.180884 H 171.92 q 2.95589,0 5.08323,0.335897 2.12734,0.335896 3.98597,1.45555 1.88101,1.119653 2.97828,2.911099 1.11965,1.769053 1.11965,4.456223 0,3.694857 -1.72427,6.023737 -1.70187,2.328881 -4.88169,3.874002 z"
       id="path29383"
       style="font-weight:bold;font-size:173.333px;line-height:1.35;-inkscape-font-specification:'sans-serif Bold';white-space:pre;fill:#ffffff;stroke-width:0.264583;fill-opacity:1" />
    <path
       d="m 225.24379,47.524175 h -8.89006 l -2.30648,-6.740316 h -12.36098 l -2.30649,6.740316 h -8.66612 l 12.31619,-33.343291 h 9.89774 z M 211.96469,34.67055 207.86676,22.712646 203.76882,34.67055 Z"
       id="path29385"
       style="font-weight:bold;font-size:173.333px;line-height:1.35;-inkscape-font-specification:'sans-serif Bold';white-space:pre;fill:#ffffff;stroke-width:0.264583;fill-opacity:1" />
    <path
       d="m 258.89712,30.88612 q 0,4.657759 -2.12734,8.352618 -2.12735,3.672464 -5.37434,5.643054 -2.44085,1.477944 -5.35195,2.060162 -2.9111,0.582221 -6.89707,0.582221 H 227.39006 V 14.180884 h 12.09226 q 4.07554,0 7.03143,0.694186 2.95588,0.671792 4.97126,1.925804 3.44853,2.10495 5.41912,5.687842 1.99299,3.560499 1.99299,8.397404 z m -8.89005,-0.06718 q 0,-3.291781 -1.20923,-5.620661 -1.18683,-2.351273 -3.78443,-3.672465 -1.32119,-0.649399 -2.70956,-0.87333 -1.36598,-0.246324 -4.14272,-0.246324 H 235.989 v 20.870347 h 2.17213 q 3.06785,0 4.50101,-0.268717 1.43315,-0.29111 2.79913,-1.030081 2.35127,-1.343583 3.44854,-3.582892 1.09726,-2.261701 1.09726,-5.575877 z"
       id="path29387"
       style="font-weight:bold;font-size:173.333px;line-height:1.35;-inkscape-font-specification:'sans-serif Bold';white-space:pre;fill:#ffffff;stroke-width:0.264583;fill-opacity:1" />
    <path
       d="m 279.92312,24.392127 q 0,-1.254012 -0.51503,-2.149735 -0.51504,-0.895723 -1.76904,-1.410764 -0.87333,-0.358289 -2.03779,-0.425469 -1.16443,-0.08957 -2.70954,-0.08957 h -3.11264 v 8.979625 h 2.64237 q 2.06017,0 3.44855,-0.201538 1.38837,-0.201539 2.32886,-0.918117 0.89572,-0.694185 1.29881,-1.522729 0.42545,-0.850937 0.42545,-2.261701 z m 13.41348,23.132048 h -10.50237 l -9.09159,-12.22662 h -3.96356 v 12.22662 h -8.55417 V 14.180884 h 14.42114 q 2.9559,0 5.08323,0.335897 2.12736,0.335896 3.98598,1.45555 1.88103,1.119653 2.97828,2.911099 1.11964,1.769053 1.11964,4.456223 0,3.694857 -1.72427,6.023737 -1.70185,2.328881 -4.88169,3.874002 z"
       id="path29389"
       style="font-weight:bold;font-size:173.333px;line-height:1.35;-inkscape-font-specification:'sans-serif Bold';white-space:pre;fill:#ffffff;stroke-width:0.264583;fill-opacity:1" />
    <path
       d="m 321.91765,14.180884 -12.29382,20.44488 V 47.524175 H 301.0249 V 35.028838 L 288.52956,14.180884 h 9.76339 l 7.21055,12.898412 6.96426,-12.898412 z"
       id="path29391"
       style="font-weight:bold;font-size:173.333px;line-height:1.35;-inkscape-font-specification:'sans-serif Bold';white-space:pre;fill:#ffffff;stroke-width:0.264583;fill-opacity:1" />
  </g>
</svg>
