<?xml version="1.0" encoding="UTF-8" standalone="no"?>
<!-- Created with Inkscape (http://www.inkscape.org/) -->

<svg
   width="200"
   height="150"
   viewBox="0 0 52.916667 39.6875"
   version="1.1"
   id="svg5"
   xml:space="preserve"
   inkscape:version="1.2 (dc2aedaf03, 2022-05-15)"
   sodipodi:docname="collection-empty.svg"
   xmlns:inkscape="http://www.inkscape.org/namespaces/inkscape"
   xmlns:sodipodi="http://sodipodi.sourceforge.net/DTD/sodipodi-0.dtd"
   xmlns="http://www.w3.org/2000/svg"
   xmlns:svg="http://www.w3.org/2000/svg"><sodipodi:namedview
     id="namedview7"
     pagecolor="#ffffff"
     bordercolor="#666666"
     borderopacity="1.0"
     inkscape:showpageshadow="2"
     inkscape:pageopacity="0.0"
     inkscape:pagecheckerboard="0"
     inkscape:deskcolor="#d1d1d1"
     inkscape:document-units="mm"
     showgrid="false"
     inkscape:zoom="2.587745"
     inkscape:cx="394.93846"
     inkscape:cy="273.79051"
     inkscape:window-width="3840"
     inkscape:window-height="2071"
     inkscape:window-x="-9"
     inkscape:window-y="-9"
     inkscape:window-maximized="1"
     inkscape:current-layer="layer1" /><defs
     id="defs2" /><g
     inkscape:label="Layer 1"
     inkscape:groupmode="layer"
     id="layer1"><path
       id="ellipse293-8"
       style="fill:#ebebeb;fill-opacity:1;stroke-width:0.0690249"
       d="m 13.481436,36.2094 c -0.304844,-0.136302 -0.383145,-0.884386 -0.8443,-1.326938 -0.627548,-0.602236 -1.585194,-0.915564 -1.277307,-0.916635 8.897059,-0.03099 5.026272,-0.03846 8.908042,-0.03989 -0.0089,0.582644 -0.104909,1.811656 4.69e-4,2.585424 2.421764,0.0083 18.195749,0.06772 19.87266,0.07774 0.681873,0.0041 0.605793,-2.278659 0.893384,-2.609715 0.143384,-0.16506 0.01051,0.05038 7.95335,-0.04378 -1.934284,3.984604 -6.216077,3.369715 -7.564191,4.544871 -0.02446,0.02135 -0.06458,-10e-4 -0.09633,-0.0013 -3.40041,-0.06763 -21.725811,0.466647 -22.833351,-0.02855 z"
       sodipodi:nodetypes="sssccsscssss" /><path
       style="fill:#c4c4c4;fill-opacity:1;stroke-width:0.0525883"
       d="m 51.416819,21.17072 c -0.04781,2.624645 -0.204984,5.2249 -0.410317,6.788268 -0.437347,3.32984 -1.215771,5.813885 -2.345306,7.484155 -0.55261,0.817155 -0.928945,1.057646 -2.173605,1.388997 -0.991248,0.263889 -2.396672,0.762004 -4.409308,1.562764 l -0.920931,0.366412 -11.424476,-0.02507 -11.424471,-0.02507 -0.547634,-0.260051 C 17.45957,38.3081 16.330718,37.801852 15.252214,37.326134 c -2.252398,-0.993509 -2.15585,-0.926697 -2.664275,-1.84369 -0.17887,-0.322616 -0.386845,-0.659036 -0.46216,-0.747608 -0.131378,-0.154493 -0.152651,-0.161034 -0.523734,-0.161034 -0.356848,0 -0.388641,0.0086 -0.41063,0.111485 -0.01312,0.06132 -0.07696,0.400463 -0.141878,0.753655 -0.137807,0.7497 -0.282308,1.064101 -0.64904,1.41216 C 9.1584258,38.029937 5.7812892,38.498671 3.9326211,37.748824 3.043542,37.388208 2.4447563,36.673377 2.1694212,35.643923 1.9330238,34.76005 1.6267402,32.51547 1.4757375,30.560311 1.2955752,28.228705 1.2559543,26.420393 1.2530938,20.402683 1.25022,14.363174 1.2794696,13.010836 1.4760056,10.096412 1.5507729,8.9876592 1.6019114,8.4122564 1.8657199,5.7112902 2.0326707,4.0020059 2.2672583,3.4162936 3.0496552,2.7552863 3.4600704,2.4085462 3.9644744,2.1600852 4.5990731,1.9920654 5.0324713,1.8773172 5.2330244,1.8556554 6.0606282,1.8342013 7.508353,1.7966753 8.4165085,1.9414491 9.4076118,2.3677617 c 1.1185972,0.4811538 1.4702972,0.993717 1.7746092,2.5863079 0.0498,0.2606282 0.157243,0.3360506 0.478709,0.3360506 0.32334,0 0.262824,0.062974 0.964299,-1.0035021 0.282365,-0.4292923 0.563625,-0.8098897 0.62502,-0.8457731 0.06139,-0.035883 1.271528,-0.5709582 2.689184,-1.1890579 l 2.577555,-1.123816 h 11.411093 11.411093 l 0.383464,0.1739957 c 1.519744,0.6895795 4.100073,1.6027375 5.536768,1.959418 0.485648,0.1205664 0.748084,0.312136 1.16939,0.8536084 1.311319,1.6853249 2.200764,4.5258491 2.687499,8.5827618 0.299513,2.496435 0.372041,4.541928 0.300437,8.472945 z M 50.729056,16.612176 C 50.525841,12.035444 50.071027,9.2733647 49.10135,6.7270734 48.632046,5.4947215 47.855987,4.2364433 47.418849,3.9991157 47.321029,3.9460087 46.914483,3.8115633 46.515411,3.7003493 45.507661,3.4195048 43.603282,2.7415851 42.304559,2.2013709 L 41.213079,1.7473583 29.92096,1.7347359 18.628843,1.7221136 16.166762,2.8137355 c -1.354146,0.6003924 -2.492146,1.1137719 -2.528888,1.1408442 -0.03674,0.027072 -0.314805,0.4308673 -0.617914,0.8973255 -0.646831,0.9954158 -0.693306,1.032378 -1.298327,1.0326495 l -0.412338,1.874e-4 0.0378,0.28491 c 0.168425,1.2697131 0.358812,3.5942727 0.483946,5.9087659 0.03315,0.613173 0.07388,3.444921 0.09049,6.292772 0.04303,7.374479 -0.07465,10.86507 -0.487338,14.454904 -0.147516,1.28317 -0.173129,1.153142 0.227154,1.153142 0.418564,0 0.668273,0.08956 0.848773,0.304426 0.07683,0.09146 0.345791,0.483056 0.597686,0.870211 0.251894,0.387151 0.534025,0.76991 0.626958,0.850571 0.215362,0.186924 0.647915,0.390578 1.373729,0.64678 0.678358,0.239453 1.096336,0.423754 1.965023,0.86645 0.353025,0.179909 0.839645,0.395188 1.081377,0.478405 l 0.439519,0.151301 11.307915,-0.0045 11.307916,-0.0045 0.671188,-0.291544 c 0.716286,-0.311128 2.405747,-0.957027 2.959565,-1.131475 0.184188,-0.05802 0.648048,-0.187004 1.030806,-0.286637 1.247677,-0.324782 1.645843,-0.533082 2.059661,-1.0775 1.057893,-1.39177 1.928048,-3.905237 2.345908,-6.776242 0.196038,-1.346906 0.405158,-3.854117 0.468797,-5.620597 0.04269,-1.184756 0.03173,-5.242228 -0.0171,-6.342324 z m -8.907838,6.961688 c -0.164841,7.168297 -0.60238,11.902559 -1.195405,12.934518 -0.05901,0.102689 -0.174173,0.233407 -0.255914,0.290489 l -0.14862,0.103783 H 30.027258 c -9.136053,0 -10.206896,-0.0081 -10.318068,-0.07713 -0.155296,-0.09656 -0.16059,-0.287162 -0.01262,-0.454174 0.429465,-0.484697 0.815248,-3.892955 1.064369,-9.403346 0.09441,-2.088216 0.130032,-9.578642 0.05762,-12.114826 C 20.650724,8.9748218 20.303723,5.066401 19.822678,3.6361143 l -0.14801,-0.4400677 0.154214,-0.1177592 0.154211,-0.1177591 10.14867,0.01279 c 9.892941,0.012455 10.151627,0.015169 10.266218,0.107229 0.665663,0.5348185 1.087068,3.8059456 1.347459,10.4595747 0.05579,1.425584 0.109663,8.559786 0.07577,10.033751 z m -0.69147,-7.853577 C 40.9664,8.8157228 40.486074,3.8567054 39.956269,3.6049897 c -0.152158,-0.072293 -19.422287,-0.067257 -19.422287,0.00507 0,0.029783 0.04879,0.2694786 0.108423,0.5326557 0.243218,1.073355 0.493495,3.362552 0.642795,5.8793876 0.164968,2.780931 0.204942,4.149538 0.235902,8.076549 0.06609,8.381859 -0.299309,15.311583 -0.933586,17.705435 -0.06014,0.226981 -0.109349,0.433293 -0.109349,0.458471 0,0.02788 3.814206,0.04088 9.7535,0.03326 l 9.753504,-0.01252 0.09966,-0.18097 c 0.730757,-1.326861 1.254183,-11.536767 1.044917,-20.382022 z m -3.110964,11.489518 1.715224,3.255082 -2.148842,3.511077 -4.480024,0.0033 -2.10704,-3.178491 -3.889535,-0.01741 -2.162983,-3.512504 2.158957,-3.47396 4.285266,-0.04953 1.940228,-3.096838 4.478389,0.0013 2.146443,3.518982 z m -0.561825,-6.088633 -3.792701,0.03653 -1.868159,2.956005 0.885229,1.415302 0.885229,1.415302 4.064099,-0.02584 1.711477,-2.755578 z m 0.15132,6.333458 -4.076947,-0.01711 -2.033679,3.127818 1.958664,2.943179 h 3.775661 l 1.887577,-3.047684 z m -5.481716,-1.713084 -0.927765,-1.444576 -3.790624,0.05789 -1.855524,2.925122 1.884942,3.007819 3.567327,0.0261 1.974243,-3.177254 -0.852599,-1.395131 z M 29.916958,8.2335146 c -0.07114,0.057149 -0.118965,0.06774 -0.143935,0.031877 -0.06617,-0.095043 -0.582115,-0.3012173 -0.878778,-0.3511634 -0.442037,-0.07442 -0.990532,0.070295 -1.359894,0.3587951 -0.112698,0.088024 -0.119026,0.087899 -0.212899,-0.00419 -0.0928,-0.091032 -0.08919,-0.099944 0.08824,-0.2180816 0.448242,-0.2984465 0.651,-0.3565704 1.245459,-0.3570313 0.505956,-3.681e-4 0.588068,0.013014 0.878255,0.1435134 0.176065,0.079172 0.35836,0.181464 0.405105,0.2273177 0.0765,0.075046 0.07435,0.091918 -0.02155,0.1689655 z M 29.684552,6.9355758 c -0.05129,0.078097 -0.07549,0.075232 -0.313592,-0.037163 -0.354724,-0.1674411 -0.734908,-0.1648287 -1.065801,0.00732 -0.227229,0.1182179 -0.25569,0.1224411 -0.337249,0.050034 -0.08156,-0.072408 -0.07987,-0.085622 0.02001,-0.1566075 0.417807,-0.2969236 0.990023,-0.3523603 1.465574,-0.141981 0.308559,0.1365014 0.317313,0.1470487 0.231058,0.278393 z M 11.213111,13.88696 C 11.02578,8.728449 10.607973,4.6536694 10.180562,3.8167508 9.9134878,3.293792 9.2041028,2.8376113 8.3580092,2.6447308 7.8504923,2.5290353 6.5698309,2.4496914 5.715582,2.4810184 4.5451646,2.5239399 3.8888611,2.6743706 3.587111,2.9688843 3.3846172,3.1665192 3.3818558,3.2743455 3.5661864,3.7852196 c 0.3556796,0.9857318 0.451274,1.6198355 0.6377123,4.2301387 0.3251339,4.5521397 0.3906364,6.5756067 0.392172,12.1148257 0.00147,5.206888 -0.082805,7.741903 -0.3894532,11.718433 -0.1480829,1.920284 -0.3922034,3.502763 -0.6375368,4.132744 -0.1685182,0.432728 -0.153047,0.680786 0.053923,0.864526 0.2128828,0.188988 0.6666377,0.380093 1.216483,0.512344 0.5785551,0.139153 2.0270924,0.151274 2.773765,0.02322 1.2473272,-0.213932 2.1426591,-0.608243 2.4794083,-1.091956 0.494083,-0.709715 0.97116,-5.467729 1.115989,-11.130041 0.06455,-2.523916 0.06733,-9.541136 0.0045,-11.272487 z M 3.9016089,15.745064 C 3.8127838,11.989569 3.6779737,9.5033828 3.4233648,6.92527 3.2678623,5.3506801 3.219578,5.0187043 3.0522118,4.3734768 L 2.936537,3.9275322 2.8649612,4.1105262 C 2.6213407,4.7333804 2.4324512,5.9862107 2.3135828,7.7676104 2.0238018,12.110315 1.9543547,13.914078 1.9119981,18.197757 c -0.048694,4.924871 0.042132,8.33501 0.3457607,12.981941 0.1761354,2.695701 0.3051824,3.689746 0.5917882,4.558545 L 2.914931,35.93644 2.991625,35.71347 C 3.2881732,34.851317 3.6136532,31.56983 3.7927122,27.636917 3.9451495,24.288741 3.9893964,19.456725 3.9016089,15.745064 Z"
       id="path179"
       sodipodi:nodetypes="csssscccssssscssssccsssscsssssscccsssscccsssscccsssscssssssssssscccsssssscccsscsccssscccccsccssscscssccssscccccccccccccccccccccccccccccccccccccsssssscsssssssscssscsssscscsssscssccssscscssscsss" /><rect
       x="-7.4625125"
       y="-35.544189"
       width="5.1935716"
       height="3.8980625"
       transform="matrix(-0.51918993,0.85465889,-0.86683399,-0.49859687,0,0)"
       fill="#5e1508"
       id="rect281"
       style="fill:#d3d3d3;fill-opacity:1;stroke-width:0.0690369" /><ellipse
       cx="-2.2689316"
       cy="-33.595154"
       transform="matrix(-0.51918993,0.85465889,-0.86683399,-0.49859687,0,0)"
       fill="#5e1508"
       id="ellipse283"
       style="fill:#d3d3d3;fill-opacity:1;stroke-width:0.0690369"
       rx="1.9235436"
       ry="1.9490312" /><ellipse
       cx="-7.3984132"
       cy="-33.595135"
       transform="matrix(-0.51918993,0.85465889,-0.86683399,-0.49859687,0,0)"
       fill="#5e1508"
       id="ellipse285"
       style="fill:#d3d3d3;fill-opacity:1;stroke-width:0.0690369"
       rx="1.9235436"
       ry="1.9490312" /><rect
       x="-7.4625125"
       y="-35.544189"
       width="0.96177518"
       height="3.8980625"
       transform="matrix(-0.51918993,0.85465889,-0.86683399,-0.49859687,0,0)"
       fill="#fed434"
       id="rect287"
       style="fill:#ebebeb;fill-opacity:1;stroke-width:0.0690369" /><rect
       x="-5.6030741"
       y="-35.544189"
       width="0.96177518"
       height="3.8980625"
       transform="matrix(-0.51918993,0.85465889,-0.86683399,-0.49859687,0,0)"
       fill="#fed434"
       id="rect289"
       style="fill:#f3f3f3;fill-opacity:1;stroke-width:0.0690369" /><ellipse
       rx="2.9417872"
       ry="1.5927873"
       transform="matrix(-0.98724003,0.15923921,-0.1790385,-0.98384207,0,0)"
       fill="#5e1508"
       id="ellipse291"
       cx="-30.080662"
       cy="-19.143072"
       style="fill:#d3d3d3;fill-opacity:1;stroke-width:0.0690319" /><ellipse
       rx="1.9611888"
       ry="0.79639018"
       transform="matrix(-0.98724003,0.15923921,-0.1790385,-0.98384207,0,0)"
       fill="#fed434"
       id="ellipse293"
       cx="-30.089638"
       cy="-19.143026"
       style="fill:#ebebeb;fill-opacity:1;stroke-width:0.0690319" /><path
       id="ellipse293-4"
       style="fill:#ebebeb;fill-opacity:1;stroke-width:0.0538137"
       d="m 2.523121,34.054742 c 0.2784824,0.001 0.4948977,-0.01379 0.7808324,-0.003 -0.1590458,1.109715 -0.2483718,1.301031 -0.2051512,1.335726 0.2453472,0.196949 0.3999766,0.735398 0.4241445,1.409748 0.030642,0.854998 -0.1397462,1.583207 -0.6166842,1.581564 C 2.4165287,38.377038 2.33022,37.731187 2.299578,36.876187 2.2736384,36.152392 2.4481179,35.531932 2.7072248,35.34532 2.7541927,35.311497 2.5009938,34.464591 2.523121,34.054716 Z"
       sodipodi:nodetypes="ccsssssc" /><ellipse
       rx="2.8734429"
       ry="1.6303751"
       transform="matrix(0.3405046,0.94024285,-0.94238978,0.33451682,0,0)"
       fill="#5e1508"
       id="ellipse295"
       cx="21.270168"
       cy="-23.733849"
       style="fill:#d3d3d3;fill-opacity:1;stroke-width:0.0690255" /><ellipse
       rx="1.9156263"
       ry="0.81518412"
       transform="matrix(0.3405046,0.94024285,-0.94238978,0.33451682,0,0)"
       fill="#fed434"
       id="ellipse297"
       cx="21.261415"
       cy="-23.733763"
       style="fill:#ebebeb;fill-opacity:1;stroke-width:0.0690255" /></g></svg>
