<?xml version="1.0" encoding="UTF-8" standalone="no"?>
<!-- Created with Inkscape (http://www.inkscape.org/) -->

<svg
   width="200"
   height="150"
   viewBox="0 0 52.916667 39.6875"
   version="1.1"
   id="svg5"
   xml:space="preserve"
   inkscape:version="1.2 (dc2aedaf03, 2022-05-15)"
   sodipodi:docname="collection-empty.svg"
   xmlns:inkscape="http://www.inkscape.org/namespaces/inkscape"
   xmlns:sodipodi="http://sodipodi.sourceforge.net/DTD/sodipodi-0.dtd"
   xmlns:xlink="http://www.w3.org/1999/xlink"
   xmlns="http://www.w3.org/2000/svg"
   xmlns:svg="http://www.w3.org/2000/svg"><sodipodi:namedview
     id="namedview7"
     pagecolor="#ffffff"
     bordercolor="#666666"
     borderopacity="1.0"
     inkscape:showpageshadow="2"
     inkscape:pageopacity="0.0"
     inkscape:pagecheckerboard="0"
     inkscape:deskcolor="#d1d1d1"
     inkscape:document-units="mm"
     showgrid="false"
     inkscape:zoom="10.35098"
     inkscape:cx="123.65979"
     inkscape:cy="66.225613"
     inkscape:window-width="3840"
     inkscape:window-height="2071"
     inkscape:window-x="-9"
     inkscape:window-y="-9"
     inkscape:window-maximized="1"
     inkscape:current-layer="layer1" /><defs
     id="defs2"><linearGradient
       inkscape:collect="always"
       id="linearGradient3935"><stop
         style="stop-color:#f8f8f8;stop-opacity:1;"
         offset="0"
         id="stop3929" /><stop
         style="stop-color:#f2f2f2;stop-opacity:1;"
         offset="0.32248521"
         id="stop3931" /><stop
         style="stop-color:#f8f8f8;stop-opacity:1;"
         offset="1"
         id="stop3933" /></linearGradient><linearGradient
       inkscape:collect="always"
       id="linearGradient3848"><stop
         style="stop-color:#f8f8f8;stop-opacity:1;"
         offset="0"
         id="stop3842" /><stop
         style="stop-color:#fcfcfc;stop-opacity:1;"
         offset="0.32248521"
         id="stop3844" /><stop
         style="stop-color:#f8f8f8;stop-opacity:1;"
         offset="1"
         id="stop3846" /></linearGradient><linearGradient
       inkscape:collect="always"
       id="linearGradient3797"><stop
         style="stop-color:#f8f8f8;stop-opacity:1;"
         offset="0"
         id="stop3793" /><stop
         style="stop-color:#fcfcfc;stop-opacity:1;"
         offset="0.32248521"
         id="stop3801" /><stop
         style="stop-color:#f8f8f8;stop-opacity:1;"
         offset="1"
         id="stop3795" /></linearGradient><inkscape:path-effect
       effect="envelope"
       id="path-effect3760"
       is_visible="true"
       lpeversion="1"
       yy="true"
       xx="false"
       bendpath1="m 22.427572,17.371033 c 1.558406,0.534097 7.435737,0.528918 9.163781,0"
       bendpath2="m 31.591353,17.371033 v 6.832141"
       bendpath3="m 22.427572,24.203174 c 1.545345,0.530816 7.457844,0.508315 9.163781,0"
       bendpath4="m 22.427572,17.371033 v 6.832141"
       bendpath1-nodetypes="cc"
       bendpath3-nodetypes="cc" /><inkscape:path-effect
       effect="perspective-envelope"
       up_left_point="22.427572,17.371033"
       up_right_point="31.591353,17.371033"
       down_left_point="22.427572,24.203174"
       down_right_point="31.591353,24.203174"
       id="path-effect3758"
       is_visible="true"
       lpeversion="1"
       deform_type="envelope_deformation"
       horizontal_mirror="false"
       vertical_mirror="false"
       overflow_perspective="false" /><linearGradient
       inkscape:collect="always"
       id="linearGradient2082"><stop
         style="stop-color:#c4c4c4;stop-opacity:1;"
         offset="0"
         id="stop2078" /><stop
         style="stop-color:#d9d9d9;stop-opacity:1;"
         offset="0.2854878"
         id="stop2086" /><stop
         style="stop-color:#c4c4c4;stop-opacity:1;"
         offset="1"
         id="stop2080" /></linearGradient><linearGradient
       inkscape:collect="always"
       id="linearGradient2072"><stop
         style="stop-color:#dddddd;stop-opacity:1;"
         offset="0"
         id="stop2068" /><stop
         style="stop-color:#e8e8e8;stop-opacity:1;"
         offset="0.2400002"
         id="stop2076" /><stop
         style="stop-color:#c4c4c4;stop-opacity:1;"
         offset="1"
         id="stop2070" /></linearGradient><inkscape:path-effect
       effect="envelope"
       id="path-effect1190"
       is_visible="true"
       lpeversion="1"
       yy="true"
       xx="false"
       bendpath1="M 9.5794725,7.5856981 H 20.812782"
       bendpath2="M 20.812782,7.5856981 V 14.754778"
       bendpath3="M 9.5794725,14.754778 H 20.812782"
       bendpath4="M 9.5794725,7.5856981 V 14.754778" /><linearGradient
       inkscape:collect="always"
       xlink:href="#linearGradient2072"
       id="linearGradient2074"
       x1="22.427572"
       y1="20.889379"
       x2="31.591353"
       y2="20.889379"
       gradientUnits="userSpaceOnUse" /><linearGradient
       inkscape:collect="always"
       xlink:href="#linearGradient2082"
       id="linearGradient2084"
       x1="21.904959"
       y1="19.200799"
       x2="32.172546"
       y2="19.200799"
       gradientUnits="userSpaceOnUse" /><linearGradient
       inkscape:collect="always"
       xlink:href="#linearGradient3797"
       id="linearGradient3799"
       x1="22.181868"
       y1="13.767845"
       x2="31.861679"
       y2="13.767845"
       gradientUnits="userSpaceOnUse" /><linearGradient
       inkscape:collect="always"
       xlink:href="#linearGradient3848"
       id="linearGradient3839"
       gradientUnits="userSpaceOnUse"
       x1="22.181868"
       y1="13.767845"
       x2="31.861679"
       y2="13.767845"
       gradientTransform="matrix(0.90493582,0,0,2.1025206,2.5715942,-8.645206)" /><linearGradient
       inkscape:collect="always"
       xlink:href="#linearGradient3935"
       id="linearGradient3926"
       gradientUnits="userSpaceOnUse"
       x1="22.181868"
       y1="13.767845"
       x2="31.861679"
       y2="13.767845"
       gradientTransform="matrix(1,0,0,0.56900165,-0.13145348,17.334799)" /></defs><g
     inkscape:label="Layer 1"
     inkscape:groupmode="layer"
     id="layer1"><path
       id="rect3029"
       style="fill:url(#linearGradient3799);fill-opacity:1;stroke-width:0.290777;stroke-linecap:square;stroke-linejoin:round;paint-order:markers fill stroke"
       d="m 22.303919,12.923258 c 1.474687,-0.840757 8.397068,-0.700786 9.434883,-0.01807 0.110581,0.579909 0.205678,1.1622 0.009,1.789374 -1.355425,0.725053 -7.964985,0.600399 -9.416808,0.009 -0.198811,-0.618749 -0.189599,-1.209761 -0.02711,-1.780337 z"
       sodipodi:nodetypes="ccccc" /><path
       id="rect3029-4"
       style="fill:url(#linearGradient3926);fill-opacity:1;stroke-width:0.219339;stroke-linecap:square;stroke-linejoin:round;paint-order:markers fill stroke"
       d="m 22.64692,25.076756 c 0.629439,-1.235438 8.469233,-0.917083 8.806795,-0.08258 0.110581,0.329969 0.03397,-0.115909 -0.162708,0.240954 -0.663244,0.401283 -2.49936,0.719496 -4.323968,0.705057 -1.734478,-0.01373 -3.594552,-0.35521 -4.198153,-0.704476 -0.198811,-0.352069 -0.279971,0.165664 -0.117482,-0.158995 z"
       sodipodi:nodetypes="cccsccc" /><path
       style="fill:none;fill-opacity:1;stroke:#e7e7e7;stroke-width:0.165;stroke-linecap:butt;stroke-linejoin:miter;stroke-dasharray:none;stroke-opacity:1"
       d="m 22.608869,24.99884 c 0.460978,-0.494804 1.9189,-0.820783 4.362703,-0.818091 2.088967,0.0256 3.963875,0.356872 4.404786,0.830872"
       id="path3991"
       sodipodi:nodetypes="ccc" /><path
       id="rect3029-7"
       style="fill:url(#linearGradient3839);fill-opacity:1;stroke-width:0.401086;stroke-linecap:square;stroke-linejoin:round;paint-order:markers fill stroke"
       d="m 22.640185,17.414299 c 1.308935,0.404992 7.490173,0.335036 8.716891,-0.006 0.100069,1.219271 -0.0056,4.264785 -0.0046,5.608992 -1.386329,0.406136 -7.22058,0.521076 -8.751657,-0.05776 -0.179911,-1.300932 -0.120406,-4.358391 0.02659,-5.558039 z"
       sodipodi:nodetypes="cccccc" /><path
       style="fill:url(#linearGradient2084);fill-opacity:1;stroke-width:0.0143647"
       d="m 26.704284,26.056588 c -0.716094,-0.01308 -1.425534,-0.05606 -1.852075,-0.112211 -0.908496,-0.119603 -1.58623,-0.332482 -2.041937,-0.64138 -0.222949,-0.151125 -0.288563,-0.254042 -0.378967,-0.594424 -0.072,-0.271081 -0.207901,-0.655428 -0.426376,-1.205832 l -0.09997,-0.25185 0.0068,-3.124297 0.0068,-3.124296 0.07095,-0.149763 c 0.03902,-0.08237 0.177144,-0.391083 0.306937,-0.686025 0.271064,-0.615973 0.252835,-0.589569 0.503023,-0.728611 0.08802,-0.04891 0.179808,-0.105792 0.203973,-0.126388 0.04216,-0.03593 0.04393,-0.04175 0.04393,-0.143227 0,-0.09759 -0.0023,-0.106284 -0.03042,-0.112297 -0.01673,-0.0036 -0.10926,-0.02104 -0.205623,-0.0388 -0.204544,-0.03769 -0.290324,-0.0772 -0.385286,-0.177496 -0.321628,-0.339674 -0.449515,-1.263233 -0.24493,-1.768795 0.09839,-0.24314 0.293419,-0.406892 0.57429,-0.482189 0.241151,-0.06465 0.85355,-0.14841 1.386986,-0.189705 0.636142,-0.04927 1.129513,-0.06011 2.771352,-0.06089 1.647789,-8.27e-4 2.016753,0.0072 2.811909,0.06096 0.302506,0.02044 0.459495,0.03444 1.196414,0.106577 0.466351,0.04565 0.626154,0.10981 0.8065,0.323775 0.0946,0.112238 0.162392,0.250179 0.208233,0.423725 0.03131,0.118524 0.03722,0.17337 0.04307,0.399698 0.01024,0.395914 -0.02926,0.644272 -0.145574,0.915312 -0.131276,0.305907 -0.27112,0.402089 -0.705635,0.48531 -0.07111,0.01362 -0.09169,0.043 -0.09169,0.130914 0,0.08842 -0.01719,0.07188 0.27379,0.263711 0.117125,0.07722 0.220965,0.154137 0.230756,0.170927 0.0098,0.01679 0.155777,0.34773 0.324416,0.735421 l 0.306616,0.704895 v 3.120636 3.120638 l -0.04747,0.104868 c -0.188142,0.41561 -0.437283,1.121263 -0.534597,1.514162 -0.03289,0.132812 -0.08516,0.204581 -0.232895,0.319797 -0.459815,0.358612 -1.234808,0.601851 -2.341675,0.734961 -0.681114,0.08191 -1.239195,0.101743 -2.311713,0.08216 z m 1.243729,-0.188085 c 1.248691,-0.05558 2.002282,-0.179954 2.696999,-0.445135 0.336228,-0.128343 0.67953,-0.340575 0.744281,-0.46012 0.01449,-0.02675 0.05117,-0.137932 0.08151,-0.247067 0.07662,-0.275594 0.261585,-0.796392 0.408974,-1.151559 l 0.12387,-0.298491 0.0034,-3.088101 0.0034,-3.088101 -0.297832,-0.673314 c -0.163807,-0.370324 -0.303875,-0.681538 -0.311261,-0.691585 -0.0074,-0.01005 -0.117556,-0.08609 -0.244822,-0.168984 -0.271584,-0.176891 -0.281668,-0.189601 -0.281743,-0.355058 l -5e-5,-0.112764 -0.07773,0.01034 c -0.346423,0.04606 -0.980643,0.09813 -1.612117,0.132347 -0.167295,0.0091 -0.939894,0.02021 -1.716887,0.02475 -2.012013,0.01177 -2.964368,-0.02041 -3.943799,-0.133273 -0.350093,-0.04035 -0.314618,-0.04735 -0.314618,0.06212 0,0.114466 -0.02443,0.182756 -0.08306,0.232118 -0.02495,0.02101 -0.131795,0.09456 -0.237424,0.163452 -0.105629,0.06888 -0.210058,0.146041 -0.232065,0.171456 -0.051,0.0589 -0.106563,0.177188 -0.176464,0.375679 -0.06533,0.185514 -0.115616,0.29982 -0.236398,0.537382 -0.04909,0.09654 -0.107821,0.229622 -0.130526,0.295729 l -0.04128,0.120197 0.0012,3.09242 0.0012,3.092422 0.07954,0.183552 c 0.08489,0.195886 0.26111,0.65791 0.308706,0.809364 0.01583,0.05036 0.05102,0.177224 0.0782,0.281898 0.08861,0.341208 0.145444,0.450096 0.29398,0.563265 0.379723,0.289306 1.065484,0.527271 1.848794,0.641545 0.367483,0.05361 1.051536,0.110799 1.533494,0.128203 0.323242,0.01167 1.430261,0.0087 1.730406,-0.0047 z m 0.743533,-10.806586 c 1.407421,-0.05124 2.519162,-0.165488 2.747502,-0.282375 0.142682,-0.07304 0.267144,-0.267036 0.319769,-0.49842 0.03156,-0.138793 0.05321,-0.489021 0.04466,-0.722636 -0.01171,-0.320078 -0.05275,-0.49956 -0.133106,-0.582081 -0.05392,-0.05537 -0.08334,-0.05613 -0.222725,-0.0057 -0.268942,0.09727 -0.441947,0.123411 -1.154128,0.174398 -1.241982,0.08892 -1.794053,0.106829 -3.305345,0.107249 -1.42062,4.02e-4 -2.112259,-0.02264 -3.197195,-0.106506 -0.52392,-0.04049 -0.955675,-0.107257 -1.127556,-0.174349 -0.118063,-0.04608 -0.185741,-0.04185 -0.235873,0.01474 -0.05156,0.05822 -0.103702,0.182308 -0.139784,0.332676 -0.03797,0.15822 -0.04128,0.554357 -0.0064,0.758553 0.05837,0.341111 0.165949,0.585961 0.297923,0.678053 0.193635,0.13512 1.491785,0.265587 3.036661,0.305194 0.688612,0.01766 2.603153,0.01842 3.075525,0.0013 z m -0.506955,-1.999505 c 1.024629,-0.0243 1.702947,-0.06116 2.406345,-0.130787 0.429604,-0.04252 0.520178,-0.05574 0.696218,-0.101501 l 0.12167,-0.03163 -0.04992,-0.01957 c -0.169936,-0.06663 -0.511752,-0.118281 -0.99778,-0.150788 -1.18484,-0.07925 -1.676969,-0.09824 -2.845705,-0.109823 -1.343676,-0.01332 -2.274079,0.01152 -3.541924,0.09456 -0.735481,0.04817 -1.00669,0.08346 -1.243729,0.161839 l -0.05408,0.01788 0.06083,0.02097 c 0.235226,0.0811 1.130529,0.170108 2.203564,0.219077 0.913499,0.04169 2.23184,0.05379 3.24451,0.02978 z"
       id="path179"
       sodipodi:nodetypes="csssscccssssscssssccsssscsssssscccsssscccsssscccsssscssssssssssscccsssssscccsssscscsssscssccssscscssscssss" /><path
       class="UnoptimicedTransforms"
       id="path176"
       style="fill:url(#linearGradient2074);fill-opacity:1;stroke-width:0.0315207;stroke-dasharray:none"
       d="m 22.406224,17.346271 c 0.0018,2.277958 0.0018,4.555336 3.8e-5,6.832135 0.59592,0.208993 1.235919,0.251897 1.865156,0.302825 8.37e-4,6.7e-5 0.0017,1.35e-4 0.0025,2.02e-4 0.888402,0.0718 1.780235,0.09533 2.671541,0.09407 0,0 0,0 0,0 0.0013,-1e-6 0.0025,-3e-6 0.0038,-5e-6 0,0 0,0 0,0 0.900652,-0.0013 1.801648,-0.02855 2.69948,-0.09991 0,0 0,0 0,0 0.0028,-2.24e-4 0.0056,-4.48e-4 0.0085,-6.73e-4 0.643341,-0.05133 1.293439,-0.101508 1.912674,-0.282758 0.01599,-2.282087 0.01592,-4.559389 -2.02e-4,-6.831906 -0.617969,0.185798 -1.268125,0.238687 -1.911547,0.29099 -0.0028,2.3e-4 -0.0056,4.6e-4 -0.0085,6.9e-4 -0.897885,0.07299 -1.799134,0.1 -2.699994,0.100383 -0.0013,0 -0.0025,1e-6 -0.0038,1e-6 0,0 -1e-6,0 -1e-6,0 -0.891509,3.05e-4 -1.783525,-0.02498 -2.671966,-0.09894 -8.39e-4,-7e-5 -0.0017,-1.4e-4 -0.0025,-2.1e-4 -0.629244,-0.05236 -1.268801,-0.09832 -1.865161,-0.306896 z m 8.972075,0.282581 c 0.0063,2.125479 -3.8e-4,4.254364 -0.01969,6.386424 -0.55487,0.13692 -1.130633,0.182569 -1.701082,0.228966 -10e-7,0 -0.0084,6.6e-4 -0.0084,6.6e-4 0,0 -10e-7,0 -10e-7,0 -0.898133,0.07283 -1.79935,0.101411 -2.70013,0.104087 0,0 0,0 0,0 0,0 -0.0038,10e-6 -0.0038,10e-6 0,0 0,0 0,0 -0.891442,0.0026 -1.783375,-0.01965 -2.671838,-0.09019 0,0 -0.0025,-1.88e-4 -0.0025,-1.88e-4 -0.559071,-0.04452 -1.126154,-0.08263 -1.66289,-0.236127 -5.57e-4,0.314136 0.01408,-6.699572 0.01352,-6.385436 0.532955,0.150992 1.094926,0.191591 1.649338,0.237308 -2.1e-5,-1e-6 0.0025,1.99e-4 0.0025,1.97e-4 0.888503,0.07319 1.780611,0.0977 2.672241,0.09664 0,0 0,0 0,0 0,0 0.0038,-4e-6 0.0038,-4e-6 0,0 1e-6,0 1e-6,0 0.900973,-0.0011 1.802417,-0.02891 2.700579,-0.102607 0,0 0,0 0,0 -1.32e-4,10e-6 0.0085,-6.83e-4 0.0084,-6.73e-4 0.577235,-0.04734 1.159887,-0.09523 1.719932,-0.239025 0,0 -2e-6,-3.9e-5 -2e-6,-3.9e-5 z m -6.033558,0.884533 c -0.358555,0.599622 -0.717601,1.194612 -1.074725,1.780445 1e-6,-1e-6 -0.0023,0.0042 -0.0023,0.0042 0.116814,-0.190752 -0.561524,0.915916 -0.44471,0.725164 0.14908,0.269935 0.295477,0.532382 0.444712,0.80095 0,2e-6 0.0023,0.0045 0.0023,0.0045 0.357716,0.64574 0.715554,1.28192 1.074646,1.913089 0.532947,0.02218 1.066595,0.03042 1.600095,0.02974 0.0013,-1e-6 0.0025,-2e-6 0.0038,-3e-6 0.479155,-6.37e-4 0.958487,-0.0086 1.437463,-0.02675 0.42069,-0.738875 0.845612,-1.492211 1.266127,-2.249123 -5e-6,9e-6 0.008,-0.0151 0.008,-0.01509 0.144347,-0.259238 0.10263,-0.184236 0.246977,-0.443474 -0.0084,-0.01365 -0.238491,-0.389543 -0.246865,-0.403193 -6e-6,-1.1e-5 -0.0079,-0.0141 -0.008,-0.01411 -0.422992,-0.693495 -0.842417,-1.389537 -1.265682,-2.100871 -0.479047,0.01818 -0.95847,0.02595 -1.437707,0.0262 -0.0013,0 -0.0025,0 -0.0038,0 -0.533589,2.41e-4 -1.067323,-0.0087 -1.60033,-0.03164 z m 0.242833,0.346101 c 0.452147,0.01592 0.90473,0.02225 1.357218,0.02203 0.0013,10e-7 0.0025,10e-7 0.0038,10e-7 0.417034,-2.32e-4 0.834227,-0.0062 1.251212,-0.01967 0.436873,0.738112 0.869282,1.459595 1.305787,2.179268 -0.433651,0.779747 -0.872294,1.556307 -1.306245,2.31743 -0.416944,0.01352 -0.834083,0.01963 -1.251065,0.02015 -0.0013,10e-7 -0.0025,10e-7 -0.0038,2e-6 -0.452434,5.44e-4 -0.904964,-0.0053 -1.35707,-0.0207 -0.436271,-0.765478 -0.870449,-1.537282 -1.304664,-2.323695 0.433138,-0.713649 0.869567,-1.441388 1.304826,-2.174816 z m 1.913612,0.399589 c -0.205893,0.0028 -0.401355,0.07775 -0.553034,0.206774 0,0 0,0 0,0 -0.0013,0.0011 -0.0025,0.0021 -0.0038,0.0032 0,0 0,1e-6 0,1e-6 -0.07025,0.06046 -0.131009,0.132628 -0.178947,0.21473 6e-6,-9e-6 -0.03335,0.05717 -0.03334,0.05716 -0.05645,-0.0058 -0.114378,-0.0093 -0.173337,-0.01034 -0.133616,-0.0024 -0.271383,0.0073 -0.407573,0.02868 -0.692634,0.108374 -1.19506,0.484787 -1.12339,0.869597 0.05142,0.27651 0.391928,0.49197 0.868399,0.534513 3.6e-5,-6.1e-5 -0.0656,0.110872 -0.06556,0.110811 0.370963,0.222616 0.742084,0.439062 1.11325,0.65118 0,0 0.0038,0.0022 0.0038,0.0022 0.118048,0.06746 0.236101,0.134468 0.354169,0.200982 -2.32e-4,4.01e-4 0.07155,-0.123925 0.07131,-0.123524 0.265194,0.39658 0.60884,0.583431 0.874662,0.475203 0.366271,-0.149326 0.466571,-0.798593 0.226624,-1.442471 -0.06699,-0.179792 -0.156595,-0.34766 -0.261826,-0.490952 -2.1e-5,3.7e-5 0.02397,-0.04211 0.02395,-0.04208 0.235543,-0.412078 0.09462,-0.919173 -0.31062,-1.141211 -0.129104,-0.07059 -0.275686,-0.106544 -0.424731,-0.104418 0,0 -7e-6,-6e-6 -7e-6,-6e-6 z m -0.968121,0.821772 c 0.131874,2.08e-4 0.25137,0.01496 0.347735,0.04341 0.0016,5.13e-4 0.0031,0.001 0.0047,0.0015 0.02074,0.0063 0.04028,0.01316 0.05853,0.02063 0.0013,5.16e-4 0.0025,0.001 0.0038,0.0016 0.02898,0.0121 0.05464,0.02569 0.07668,0.04065 8.75e-4,6.84e-4 0.0017,0.0014 0.0026,0.0021 0.01165,0.0081 0.02225,0.01645 0.03174,0.0252 7.04e-4,8.55e-4 0.0014,0.0017 0.0021,0.0026 0.0073,0.007 0.01389,0.0142 0.01978,0.02161 0.0025,0.0031 0.0049,0.0062 0.0073,0.0093 0.0041,0.0061 0.0078,0.01224 0.01092,0.01853 0.0023,0.0039 0.0043,0.0079 0.0062,0.01184 0.0042,0.0098 0.0073,0.01971 0.0094,0.02989 0.0022,0.0118 0.0028,0.02386 0.0021,0.03611 -1.61e-4,0.0012 -3.34e-4,0.0024 -5.22e-4,0.0036 -8.23e-4,0.0097 -0.0025,0.01953 -0.0052,0.02944 -6.34e-4,0.0026 -0.0013,0.0052 -0.0021,0.0078 -0.003,0.0094 -0.0069,0.0189 -0.01146,0.02843 -0.0013,0.0029 -0.0027,0.0059 -0.0041,0.0088 -0.0061,0.01169 -0.01341,0.02343 -0.02187,0.03518 -3.44e-4,5.18e-4 -6.92e-4,0.001 -0.001,0.0016 -0.01848,0.02505 -0.0422,0.05002 -0.07082,0.0745 -0.0014,0.001 -0.0027,0.0021 -0.0041,0.0031 -0.01474,0.01243 -0.03064,0.02466 -0.04764,0.03664 0,0 0,0 0,0 0,0 0,0 0,0 0,0 0,0 0,0 -0.0012,8.78e-4 -0.0025,0.0018 -0.0038,0.0026 0,0 0,0 0,0 -0.101598,0.07073 -0.241075,0.132642 -0.401066,0.176597 0,0 5.19e-4,5.2e-4 5.19e-4,5.2e-4 -0.06493,0.01777 -0.132231,0.03231 -0.200436,0.04326 -0.462164,0.07463 -0.865173,-0.02947 -0.901197,-0.221994 -0.03634,-0.191959 0.308652,-0.396981 0.770782,-0.470061 0.108361,-0.01687 0.217365,-0.02535 0.320666,-0.02484 0,0 -1.32e-4,-7.1e-5 -1.32e-4,-7.1e-5 z m 1.053628,0.432521 c 0.0054,3.53e-4 0.01104,9.23e-4 0.01667,0.0018 0.0072,8.46e-4 0.01448,0.0021 0.02187,0.0037 0.0041,0.001 0.0083,0.0022 0.0125,0.0034 0.01042,0.0028 0.02102,0.0064 0.03176,0.0108 0.0012,4.85e-4 0.0024,9.55e-4 0.0036,0.0015 3.48e-4,1.65e-4 6.94e-4,3.31e-4 0.001,4.98e-4 0.01351,0.0059 0.02725,0.01309 0.04113,0.02142 1.73e-4,-3e-6 3.47e-4,-6e-6 5.21e-4,-9e-6 0.01411,0.0087 0.02835,0.01856 0.04269,0.02961 0.01331,0.01028 0.02669,0.02153 0.04009,0.03374 0.001,8.33e-4 0.0021,0.0017 0.0031,0.0025 0,0 0.0031,0.003 0.0031,0.003 0.01355,0.01252 0.0271,0.026 0.04061,0.04039 0.05822,0.06182 0.115042,0.139874 0.167125,0.229612 0,1.72e-4 0,3.44e-4 0,5.16e-4 0.05015,0.0861 0.09504,0.18146 0.132231,0.281015 0.160349,0.431823 0.142271,0.842844 -0.0412,0.916169 -0.183141,0.07347 -0.461097,-0.219283 -0.621698,-0.654498 -0.02199,-0.0598 -0.04103,-0.120505 -0.05675,-0.180937 -0.01433,-0.05487 -0.02584,-0.10922 -0.03436,-0.162164 -0.0039,-0.02387 -0.0073,-0.04744 -0.0099,-0.0706 -5.47e-4,-0.0048 -0.0011,-0.0097 -0.0015,-0.01443 -0.0024,-0.02317 -0.0041,-0.04588 -0.0052,-0.06806 -0.0022,-0.04683 -0.0015,-0.09109 0.0021,-0.132134 3.09e-4,-0.0049 6.57e-4,-0.0097 0.001,-0.01446 0.0017,-0.01717 0.004,-0.03373 0.0068,-0.04961 3.07e-4,-0.0013 7.01e-4,-0.0028 0.001,-0.0041 0.0029,-0.01571 0.0065,-0.03073 0.01043,-0.04501 0.001,-0.0038 0.002,-0.0076 0.0031,-0.01139 0.008,-0.0265 0.01773,-0.05026 0.02917,-0.07104 0.01178,-0.01569 0.02273,-0.03148 0.03282,-0.04736 3.48e-4,-5.21e-4 6.95e-4,-0.001 0.001,-0.0016 6.91e-4,-7.04e-4 0.0014,-0.0014 0.0021,-0.0021 0.0068,-0.007 0.01392,-0.01329 0.02136,-0.01885 0.0024,-0.0018 0.0048,-0.0036 0.0073,-0.0053 0.0096,-0.0066 0.01967,-0.01214 0.0302,-0.01641 0.0099,-0.0036 0.02013,-0.0062 0.03073,-0.0076 0.0051,-6.65e-4 0.01034,-0.0011 0.01562,-0.0012 0.0058,-5.69e-4 0.01171,-8.32e-4 0.0177,-7.92e-4 0,0 1.1e-4,-3.3e-5 1.1e-4,-3.3e-5 z m -0.646241,0.469655 c 1e-6,0 0.0034,0.0019 0.0034,0.0019 0.0013,7.14e-4 0.0025,0.0014 0.0038,0.0021 -1.15e-4,-6.5e-5 0.07989,0.04539 0.07977,0.04533 0.0162,0.173624 0.0578,0.354347 0.121814,0.529007 0.0044,0.01171 0.009,0.02339 0.01354,0.03502 -0.07172,-0.04069 -0.143437,-0.08155 -0.215149,-0.122582 0,0 -0.0038,-0.0022 -0.0038,-0.0022 -0.187,-0.106997 -0.373996,-0.215103 -0.560976,-0.324555 0.0098,-0.0014 0.01944,-0.0028 0.02915,-0.0044 0.187419,-0.03078 0.367881,-0.08558 0.528442,-0.159837 0,0 -6e-6,4.9e-5 -6e-6,4.9e-5 z m -1.320993,0.650272 c -0.214669,0.391875 -0.07281,0.897899 0.324171,1.135083 0.329757,0.196307 0.733545,0.144896 1.000478,-0.100284 0,0 1e-6,0 1e-6,0 0,0 0,0 0,0 0.0013,-0.0012 0.0025,-0.0023 0.0038,-0.0035 0,0 0,0 0,0 0.05301,-0.04929 0.100442,-0.106236 0.140596,-0.170357 -0.04689,-0.02665 -0.0938,-0.05339 -0.140689,-0.08019 0,0 -0.0038,-0.0022 -0.0038,-0.0022 -0.441639,-0.252413 -0.883227,-0.510924 -1.324554,-0.778636 z"
       sodipodi:nodetypes="ccccccccccccccccccccccccccccccccccccccccccccccccccccccccccccccccccccccccccccccccccccccccccsccccccccccccccccccccccccccccccccc"
       transform="matrix(0.97830378,0,0,0.85521006,0.5844526,2.3995489)"
       inkscape:path-effect="#path-effect3760"
       inkscape:original-d="m 22.427572,17.371033 v 6.832141 h 9.163781 v -6.832141 z m 8.964827,0.21549 -0.02015,6.383073 -8.733834,0.01344 0.01395,-6.389274 8.740035,-0.0072 z m -6.012553,0.57826 -1.511019,2.616377 1.511019,2.616895 h 3.021521 l 1.510502,-2.616895 -1.510502,-2.616377 z m 0.241846,0.33693 h 2.594157 l 1.297078,2.251542 -1.297078,2.251542 H 25.621692 L 24.32513,20.753255 Z m 1.900659,0.381889 c -0.301247,3.4e-5 -0.579592,0.160777 -0.730188,0.42168 l -0.03307,0.05736 c -0.05604,-0.0056 -0.113548,-0.0087 -0.172082,-0.0093 -0.132699,-0.0013 -0.269364,0.01021 -0.404627,0.03411 -0.687663,0.121354 -1.187086,0.528711 -1.115694,0.910022 0.05123,0.274069 0.389845,0.470752 0.862996,0.501261 l -0.06511,0.112655 1.460376,0.843359 0.0708,-0.122989 c 0.262842,0.399476 0.604549,0.59433 0.868164,0.49506 0.363046,-0.136913 0.463679,-0.779809 0.224792,-1.436088 -0.06652,-0.182774 -0.155471,-0.354307 -0.259932,-0.501262 l 0.02377,-0.04134 c 0.232884,-0.403272 0.09476,-0.918978 -0.308508,-1.151867 -0.128236,-0.07391 -0.273669,-0.112764 -0.42168,-0.112655 z m -0.960665,0.820622 c 0.130925,-9.37e-4 0.249514,0.01344 0.345199,0.04186 0.0016,5.13e-4 0.0031,0.001 0.0047,0.0015 0.05503,0.01676 0.101499,0.03799 0.137976,0.06304 8.68e-4,6.87e-4 0.0017,0.0014 0.0026,0.0021 0.01157,0.0081 0.02209,0.01653 0.03152,0.02532 6.99e-4,8.58e-4 0.0014,0.0017 0.0021,0.0026 0.0072,0.007 0.01379,0.01427 0.01964,0.02171 0.0025,0.0031 0.0049,0.0062 0.0072,0.0093 0.0041,0.0061 0.0077,0.01229 0.01085,0.0186 0.0023,0.0039 0.0043,0.0079 0.0062,0.01188 0.0042,0.0098 0.0073,0.01977 0.0093,0.02997 0.0022,0.01183 0.0028,0.0239 0.0021,0.03617 -1.59e-4,0.0012 -3.31e-4,0.0024 -5.17e-4,0.0036 -8.14e-4,0.0097 -0.0025,0.01954 -0.0052,0.02946 -6.28e-4,0.0026 -0.0013,0.0052 -0.0021,0.0078 -0.003,0.0094 -0.0068,0.0189 -0.01137,0.02842 -0.0013,0.0029 -0.0027,0.0059 -0.0041,0.0088 -0.0061,0.01168 -0.0133,0.02341 -0.0217,0.03514 -3.42e-4,5.17e-4 -6.87e-4,0.001 -0.001,0.0016 -0.01834,0.02502 -0.04188,0.04995 -0.07028,0.07441 -0.0014,0.001 -0.0027,0.0021 -0.0041,0.0031 -0.102315,0.08689 -0.261496,0.164003 -0.449068,0.217557 l 5.16e-4,5.17e-4 c -0.06444,0.01833 -0.131259,0.0336 -0.198954,0.04547 -0.45859,0.08082 -0.859297,-0.0083 -0.895036,-0.198954 -0.03617,-0.190715 0.30655,-0.411015 0.765328,-0.49196 0.107623,-0.01872 0.215735,-0.02855 0.318327,-0.02894 z m 1.045931,0.436665 c 0.0054,4.4e-4 0.01096,0.0011 0.01654,0.0021 0.0071,9.64e-4 0.01437,0.0023 0.0217,0.0041 0.0041,0.0011 0.0082,0.0023 0.0124,0.0036 0.01034,0.003 0.02086,0.0068 0.03152,0.01137 0.0012,5.07e-4 0.0024,0.001 0.0036,0.0016 3.45e-4,1.72e-4 6.89e-4,3.44e-4 10e-4,5.17e-4 0.01341,0.0062 0.02704,0.01361 0.04082,0.02222 h 5.17e-4 c 0.014,0.009 0.02814,0.01914 0.04237,0.03049 0.01321,0.01056 0.02649,0.02211 0.03979,0.03462 0.001,8.55e-4 0.0021,0.0017 0.0031,0.0026 l 0.0031,0.0031 c 0.01345,0.01283 0.0269,0.02663 0.04031,0.04134 0.05779,0.06323 0.11418,0.142807 0.165881,0.234094 v 5.17e-4 c 0.04978,0.08759 0.09434,0.184406 0.131259,0.285254 0.159385,0.437953 0.1411,0.848324 -0.04082,0.916223 -0.181621,0.06807 -0.457814,-0.231254 -0.617016,-0.668693 -0.02182,-0.06017 -0.04072,-0.121199 -0.05633,-0.181901 -0.01422,-0.05512 -0.02565,-0.10967 -0.03411,-0.162781 -0.0039,-0.02395 -0.0072,-0.04758 -0.0098,-0.0708 -5.44e-4,-0.0048 -0.0011,-0.0097 -0.0015,-0.01447 -0.0024,-0.02323 -0.0041,-0.04599 -0.0052,-0.06821 -0.0022,-0.04692 -0.0015,-0.09123 0.0021,-0.132292 3.06e-4,-0.0049 6.51e-4,-0.0097 10e-4,-0.01447 0.0017,-0.01718 0.004,-0.03373 0.0067,-0.04961 3.4e-4,-0.0014 6.84e-4,-0.0028 10e-4,-0.0041 0.0029,-0.0157 0.0064,-0.0307 0.01034,-0.04496 9.99e-4,-0.0038 0.002,-0.0076 0.0031,-0.01137 0.0079,-0.02645 0.01759,-0.05013 0.02894,-0.0708 0.01169,-0.01557 0.02255,-0.03125 0.03256,-0.04702 3.46e-4,-5.17e-4 6.9e-4,-10e-4 0.001,-0.0016 6.86e-4,-6.96e-4 0.0014,-0.0014 0.0021,-0.0021 0.0067,-0.0069 0.01381,-0.01313 0.02119,-0.0186 0.0024,-0.0018 0.0048,-0.0035 0.0072,-0.0052 0.0095,-0.0065 0.01952,-0.01189 0.02997,-0.01602 0.0098,-0.0035 0.01998,-0.0059 0.03049,-0.0072 0.0051,-5.89e-4 0.01026,-9.34e-4 0.0155,-0.001 0.0058,-4.8e-4 0.01162,-6.52e-4 0.01757,-5.17e-4 z m -0.641304,0.465088 0.0863,0.04961 c 0.0161,0.173906 0.05739,0.354958 0.120923,0.5302 0.0044,0.01175 0.0089,0.02347 0.01344,0.03514 l -0.774113,-0.447518 c 0.0097,-0.0015 0.0193,-0.003 0.02894,-0.0047 0.185984,-0.03295 0.365209,-0.08857 0.524516,-0.162781 z m -1.311548,0.671277 c -0.214132,0.400916 -0.07197,0.899407 0.321427,1.127063 0.393766,0.227008 0.896599,0.101071 1.136882,-0.284737 z" /></g></svg>
