<svg width="201" height="201" viewBox="0 0 201 201" fill="none" xmlns="http://www.w3.org/2000/svg">
<path d="M201 100.5L150.75 187.536L50.25 187.536L1.09097e-05 100.5L50.25 13.4645L150.75 13.4645L201 100.5Z" fill="#5E1508"/>
<path d="M187.726 99.5651L144.587 174.456L58.309 174.456L15.1698 99.5651L58.309 24.6741L144.587 24.6741L187.726 99.5651Z" fill="#FED434"/>
<rect x="59.3651" y="116.981" width="75.7256" height="56.093" transform="rotate(-60 59.3651 116.981)" fill="#5E1508"/>
<ellipse cx="121.517" cy="65.4239" rx="28.0465" ry="28.0465" transform="rotate(-60 121.517 65.4239)" fill="#5E1508"/>
<ellipse cx="84.1216" cy="130.195" rx="28.0465" ry="28.0465" transform="rotate(-60 84.1216 130.195)" fill="#5E1508"/>
<rect x="59.3651" y="116.981" width="14.0233" height="56.093" transform="rotate(-60 59.3651 116.981)" fill="#FED434"/>
<rect x="72.921" y="93.5015" width="14.0233" height="56.093" transform="rotate(-60 72.921 93.5015)" fill="#FED434"/>
<ellipse rx="42.0698" ry="23.3721" transform="matrix(0.984808 -0.173648 0.184461 0.98284 81.2674 77.1098)" fill="#5E1508"/>
<ellipse rx="28.0465" ry="11.686" transform="matrix(0.984808 -0.173648 0.184461 0.98284 81.1411 77.1328)" fill="#FED434"/>
<ellipse rx="42.0698" ry="23.3721" transform="matrix(-0.34202 -0.939693 0.935877 -0.352327 131.796 105.73)" fill="#5E1508"/>
<ellipse rx="28.0465" ry="11.686" transform="matrix(-0.34202 -0.939693 0.935877 -0.352327 131.841 105.85)" fill="#FED434"/>
</svg>
