<?xml version="1.0" encoding="UTF-8" standalone="no"?>
<svg
   viewBox="0 0 640 640"
   version="1.1"
   id="svg1"
   xmlns="http://www.w3.org/2000/svg"
   xmlns:svg="http://www.w3.org/2000/svg">
  <defs
     id="defs1" />
  <path
     d="m 320.00073,168.65192 c 7.86301,0 14.18888,6.32587 14.18888,14.18888 v 112.50602 l 96.95737,-56.22345 c 6.79884,-3.96107 15.48953,-1.59625 19.39147,5.14347 3.90195,6.73972 1.59625,15.48953 -5.14347,19.39147 L 348.26026,320 l 97.0756,56.28257 c 6.79884,3.90194 9.10454,12.59263 5.14347,19.39147 -3.96106,6.79884 -12.59263,9.10454 -19.39147,5.14347 L 334.18961,344.65318 V 457.1592 c 0,7.86301 -6.32587,14.18888 -14.18888,14.18888 -7.863,0 -14.18888,-6.32587 -14.18888,-14.18888 V 344.65318 l -96.95737,56.22345 c -6.79884,3.96107 -15.48953,1.59625 -19.39147,-5.14347 -3.90194,-6.73972 -1.59625,-15.48953 5.20259,-19.45059 L 291.74121,320 194.6656,263.71743 c -6.79884,-3.96106 -9.10453,-12.65175 -5.20259,-19.39147 3.90194,-6.73972 12.59263,-9.10454 19.39147,-5.14347 l 96.95737,56.16433 V 182.8408 c 0,-7.86301 6.32588,-14.18888 14.18888,-14.18888 z"
     id="path1"
     style="stroke-width:1" />
</svg>
