<svg xmlns="http://www.w3.org/2000/svg" viewBox="0 0 640 640"><!--!Font Awesome Pro 7.2.0 by @fontawesome - https://fontawesome.com License - https://fontawesome.com/license (Commercial License) Copyright 2026 Fonticons, Inc.--><path d="M59.3 36.8C53.1 30.6 42.9 30.6 36.7 36.8C30.5 43 30.5 53.2 36.7 59.4L580.7 603.4C586.9 609.6 597.1 609.6 603.3 603.4C609.5 597.2 609.5 587 603.3 580.8L498.4 475.9C503.3 471.8 508 467.7 512.5 463.4C559.3 419.9 590.6 368 605.5 332.3C608.8 324.4 608.8 315.6 605.5 307.7C590.6 272 559.3 220 512.5 176.6C465.4 132.9 400.7 96 319.9 96C259.9 96 208.8 116.3 167.1 144.7L59.3 36.8zM190.3 167.8C226.7 144.1 270 128 320 128C460.8 128 549.3 256 576 320C562.7 352 533.9 400 490.8 440C485.9 444.5 480.9 448.9 475.7 453.2L421.1 398.6C438 376.9 448 349.7 448 320.1C448 249.4 390.7 192.1 320 192.1C290.4 192.1 263.1 202.1 241.5 219L190.3 167.8zM398.2 375.7L264.3 241.8C280 230.6 299.2 224 320 224C373 224 416 267 416 320C416 340.8 409.4 360 398.2 375.7zM106.8 197.3C71.3 235.8 47.1 277.5 34.5 307.7C31.2 315.6 31.2 324.4 34.5 332.3C49.4 368 80.7 420 127.5 463.4C174.6 507.1 239.3 544 320.1 544C360.7 544 397.2 534.7 429.5 519.9L405 495.5C379.2 505.8 350.9 512 320 512C179.2 512 90.7 384 64 320C75.2 293.2 97.2 255.1 129.4 219.9L106.8 197.3z"/></svg>