<?xml version="1.0" encoding="UTF-8" standalone="no"?>
<svg
   viewBox="0 0 512 512"
   version="1.1"
   id="svg1"
   sodipodi:docname="info-alone-full.svg"
   width="512"
   height="512"
   inkscape:version="1.4.2 (f4327f4, 2025-05-13)"
   xmlns:inkscape="http://www.inkscape.org/namespaces/inkscape"
   xmlns:sodipodi="http://sodipodi.sourceforge.net/DTD/sodipodi-0.dtd"
   xmlns="http://www.w3.org/2000/svg"
   xmlns:svg="http://www.w3.org/2000/svg">
  <sodipodi:namedview
     id="namedview1"
     pagecolor="#ffffff"
     bordercolor="#000000"
     borderopacity="0.25"
     inkscape:showpageshadow="2"
     inkscape:pageopacity="0.0"
     inkscape:pagecheckerboard="0"
     inkscape:deskcolor="#d1d1d1"
     inkscape:zoom="2.8953125"
     inkscape:cx="319.82731"
     inkscape:cy="320"
     inkscape:window-width="3840"
     inkscape:window-height="2071"
     inkscape:window-x="-9"
     inkscape:window-y="-9"
     inkscape:window-maximized="1"
     inkscape:current-layer="svg1" />
  <defs
     id="defs1" />
  <path
     d="m 206,356 c -16.625,0 -30,13.375 -30,30 0,16.625 13.375,30 30,30 h 100 c 16.625,0 30,-13.375 30,-30 0,-16.625 -13.375,-30 -30,-30 H 296 V 246 c 0,-16.625 -13.375,-30 -30,-30 h -60 c -16.625,0 -30,13.375 -30,30 0,16.625 13.375,30 30,30 h 30 v 80 z m 50,-180 c 22.125,0 40,-17.875 40,-40 0,-22.125 -17.875,-40 -40,-40 -22.125,0 -40,17.875 -40,40 0,22.125 17.875,40 40,40 z"
     id="path1"
     style="stroke-width:1.25" />
</svg>
