<?xml version="1.0" encoding="UTF-8" standalone="no"?>
<svg
   width="28"
   height="28"
   viewBox="0 0 28 28"
   fill="none"
   version="1.1"
   id="svg8"
   sodipodi:docname="asset-icon.svg"
   inkscape:version="1.1.1 (3bf5ae0d25, 2021-09-20)"
   xmlns:inkscape="http://www.inkscape.org/namespaces/inkscape"
   xmlns:sodipodi="http://sodipodi.sourceforge.net/DTD/sodipodi-0.dtd"
   xmlns="http://www.w3.org/2000/svg"
   xmlns:svg="http://www.w3.org/2000/svg">
  <defs
     id="defs12" />
  <sodipodi:namedview
     id="namedview10"
     pagecolor="#ffffff"
     bordercolor="#666666"
     borderopacity="1.0"
     inkscape:pageshadow="2"
     inkscape:pageopacity="0.0"
     inkscape:pagecheckerboard="0"
     showgrid="false"
     showguides="false"
     inkscape:zoom="17.975"
     inkscape:cx="0.55632823"
     inkscape:cy="19.972184"
     inkscape:window-width="2496"
     inkscape:window-height="1558"
     inkscape:window-x="-11"
     inkscape:window-y="-11"
     inkscape:window-maximized="1"
     inkscape:current-layer="svg8" />
  <g
     id="g127"
     transform="matrix(1.0042898,0,0,1.0042898,-6.0322237,-5.6437067)">
    <path
       fill-rule="evenodd"
       clip-rule="evenodd"
       d="m 25.4893,12.0899 c 0.3332,-0.2036 0.7607,0.0362 0.7607,0.4266 v 2.9279 l 5.4893,-3.3545 C 32.0724,11.8863 32.5,12.1261 32.5,12.5165 V 18.5 H 25.75 23.0271 18.25 16.777 7.50006 L 17.9893,12.0899 c 0.3332,-0.2036 0.7607,0.0362 0.7607,0.4266 v 3.6918 z"
       fill="#e39300"
       fill-opacity="0.75"
       id="path2" />
    <path
       d="M 10.7609,18.5 H 32.5 v 15 H 10.7609 Z"
       fill="#e39300"
       id="path4" />
    <path
       d="m 7.50005,6.6196 c 0,-0.55228 0.44771,-1 1,-1 h 1.36233 c 0.51102,0 0.93982,0.38529 0.99432,0.8934 L 13.75,33.5 H 7.50005 Z"
       fill="#e5bc73"
       id="path6" />
  </g>
</svg>
