<?xml version="1.0" encoding="UTF-8" standalone="no"?>
<svg
   width="32"
   height="32"
   viewBox="0 0 32 32"
   fill="none"
   version="1.1"
   id="svg18"
   sodipodi:docname="work-order-overdue.svg"
   inkscape:version="1.3 (0e150ed6c4, 2023-07-21)"
   xmlns:inkscape="http://www.inkscape.org/namespaces/inkscape"
   xmlns:sodipodi="http://sodipodi.sourceforge.net/DTD/sodipodi-0.dtd"
   xmlns="http://www.w3.org/2000/svg"
   xmlns:svg="http://www.w3.org/2000/svg">
  <sodipodi:namedview
     id="namedview18"
     pagecolor="#ffffff"
     bordercolor="#666666"
     borderopacity="1.0"
     inkscape:showpageshadow="2"
     inkscape:pageopacity="0.0"
     inkscape:pagecheckerboard="0"
     inkscape:deskcolor="#d1d1d1"
     inkscape:zoom="58.03125"
     inkscape:cx="16"
     inkscape:cy="16"
     inkscape:window-width="3840"
     inkscape:window-height="2071"
     inkscape:window-x="-9"
     inkscape:window-y="-9"
     inkscape:window-maximized="1"
     inkscape:current-layer="svg18" />
  <path
     d="M27.7996 23.251L17.4638 6.58226C17.4638 6.58226 17.1856 6 16.5 6C15.8144 6 15.5362 6.58226 15.5362 6.58226L5.20043 23.251C5.20043 23.251 5 23.5233 5 23.8909C5 24.5037 5.49012 25 6.09524 25H26.9048C27.5099 25 28 24.5037 28 23.8909C28 23.5233 27.7996 23.251 27.7996 23.251Z"
     fill="url(#paint0_linear_7_2040)"
     id="path1" />
  <path
     d="M17.7883 11.3905L17.5278 17.9853C17.5197 18.1868 17.3539 18.3461 17.1524 18.3461H15.9721C15.7701 18.3461 15.6043 18.1863 15.5967 17.9842L15.3503 11.39C15.3422 11.1771 15.5128 11 15.7257 11H17.4135C17.6264 11 17.797 11.1771 17.7883 11.3905Z"
     fill="url(#paint1_radial_7_2040)"
     id="path2" />
  <circle
     cx="16.5"
     cy="20.75"
     r="1.25"
     fill="#373737"
     id="circle2" />
  <path
     d="M24.5 30C27.5376 30 30 27.5376 30 24.5C30 21.4624 27.5376 19 24.5 19C21.4624 19 19 21.4624 19 24.5C19 27.5376 21.4624 30 24.5 30Z"
     fill="url(#paint2_linear_7_2040)"
     id="path3" />
  <path
     d="M24.5 29.5417C27.2844 29.5417 29.5417 27.2844 29.5417 24.5C29.5417 21.7156 27.2844 19.4583 24.5 19.4583C21.7156 19.4583 19.4583 21.7156 19.4583 24.5C19.4583 27.2844 21.7156 29.5417 24.5 29.5417Z"
     fill="url(#paint3_radial_7_2040)"
     id="path4" />
  <path
     d="M24.5 29.0833C27.0313 29.0833 29.0833 27.0313 29.0833 24.5C29.0833 21.9687 27.0313 19.9167 24.5 19.9167C21.9687 19.9167 19.9167 21.9687 19.9167 24.5C19.9167 27.0313 21.9687 29.0833 24.5 29.0833Z"
     fill="url(#paint4_radial_7_2040)"
     id="path5" />
  <path
     d="M24.5 24.7292C24.4413 24.7292 24.3827 24.7067 24.3378 24.6622C24.2484 24.5729 24.2484 24.4276 24.3378 24.3382L26.6711 22.0048C26.7605 21.9155 26.9058 21.9155 26.9952 22.0048C27.0845 22.0942 27.0845 22.2395 26.9952 22.3289L24.6618 24.6622C24.6173 24.7067 24.5587 24.7292 24.5 24.7292Z"
     fill="#45494D"
     id="path6" />
  <path
     d="M24.4995 24.8437C24.4482 24.8437 24.3955 24.8323 24.3465 24.8075L21.5965 23.4325C21.4264 23.3473 21.3577 23.141 21.4425 22.9715C21.5277 22.8014 21.734 22.7327 21.9035 22.8175L24.6535 24.1925C24.8236 24.2777 24.8923 24.484 24.8075 24.6535C24.747 24.7745 24.6256 24.8437 24.4995 24.8437Z"
     fill="#45494D"
     id="path7" />
  <path
     d="M24.5 25.1875C24.8797 25.1875 25.1875 24.8797 25.1875 24.5C25.1875 24.1203 24.8797 23.8125 24.5 23.8125C24.1203 23.8125 23.8125 24.1203 23.8125 24.5C23.8125 24.8797 24.1203 25.1875 24.5 25.1875Z"
     fill="#1E2021"
     id="path8" />
  <defs
     id="defs18">
    <linearGradient
       id="paint0_linear_7_2040"
       x1="-165.721"
       y1="-190.089"
       x2="26.2703"
       y2="27.3639"
       gradientUnits="userSpaceOnUse">
      <stop
         stop-color="#FFDA1C"
         id="stop8" />
      <stop
         offset="1"
         stop-color="#FEB705"
         id="stop9" />
    </linearGradient>
    <radialGradient
       id="paint1_radial_7_2040"
       cx="0"
       cy="0"
       r="1"
       gradientUnits="userSpaceOnUse"
       gradientTransform="translate(13.4295 10.8814) scale(12.1133 12.1133)">
      <stop
         stop-color="#4B4B4B"
         id="stop10" />
      <stop
         offset="0.531"
         stop-color="#393939"
         id="stop11" />
      <stop
         offset="1"
         stop-color="#252525"
         id="stop12" />
    </radialGradient>
    <linearGradient
       id="paint2_linear_7_2040"
       x1="20.611"
       y1="20.611"
       x2="28.389"
       y2="28.389"
       gradientUnits="userSpaceOnUse">
      <stop
         stop-color="#889097"
         id="stop13" />
      <stop
         offset="1"
         stop-color="#64717C"
         id="stop14" />
    </linearGradient>
    <radialGradient
       id="paint3_radial_7_2040"
       cx="0"
       cy="0"
       r="1"
       gradientUnits="userSpaceOnUse"
       gradientTransform="translate(24.5 24.5) scale(5.04167)">
      <stop
         id="stop15" />
      <stop
         offset="1"
         stop-opacity="0"
         id="stop16" />
    </radialGradient>
    <radialGradient
       id="paint4_radial_7_2040"
       cx="0"
       cy="0"
       r="1"
       gradientUnits="userSpaceOnUse"
       gradientTransform="translate(24.4702 20.023) scale(10.2135 10.2135)">
      <stop
         stop-color="#FAFAFB"
         id="stop17" />
      <stop
         offset="1"
         stop-color="#C8CDD1"
         id="stop18" />
    </radialGradient>
  </defs>
</svg>
